<svg width="57" height="58" viewBox="0 0 57 58" fill="none" xmlns="http://www.w3.org/2000/svg">
<path d="M25.8281 40.7359V29.9062C25.8281 29.6659 25.7342 29.4354 25.5672 29.2654C25.4002 29.0955 25.1736 29 24.9374 29C19.4979 29 18.7353 38.4967 18.7055 38.9008C18.6923 39.0801 18.7318 39.2594 18.819 39.4158C18.9063 39.5723 19.0373 39.6987 19.1953 39.7792L20.4843 40.4351V40.7364L19.7941 47.7607C19.7569 48.1387 19.798 48.5204 19.9147 48.8812C20.0314 49.242 20.2211 49.5739 20.4716 49.8555C20.7221 50.1371 21.0277 50.3623 21.369 50.5163C21.7102 50.6704 22.0793 50.75 22.4526 50.75H23.8598C24.2331 50.75 24.6022 50.6704 24.9434 50.5163C25.2846 50.3623 25.5903 50.1371 25.8408 49.8555C26.0912 49.5739 26.2809 49.242 26.3976 48.8812C26.5143 48.5204 26.5554 48.1387 26.5183 47.7607L25.8281 40.7359ZM20.5454 38.4397C20.6998 37.169 20.9744 35.9163 21.3654 34.6993C22.0498 32.6499 22.9491 31.4028 24.0468 30.9777V39.875H22.2656C22.2655 39.7067 22.2195 39.5417 22.1325 39.3986C22.0456 39.2554 21.9212 39.1397 21.7733 39.0645L20.5454 38.4397ZM24.5198 48.6393C24.4368 48.7337 24.335 48.809 24.2212 48.8604C24.1075 48.9118 23.9843 48.9381 23.8598 48.9375H22.4526C22.3281 48.9375 22.205 48.911 22.0912 48.8596C21.9774 48.8082 21.8755 48.7332 21.792 48.6392C21.7085 48.5453 21.6453 48.4346 21.6064 48.3143C21.5675 48.1939 21.5539 48.0667 21.5663 47.9406L22.1809 41.6875H24.1314L24.7461 47.9406C24.7592 48.0667 24.7458 48.1942 24.7068 48.3147C24.6679 48.4351 24.6043 48.5458 24.5202 48.6393H24.5198Z" fill="#4C2770"/>
<path d="M54.3281 0.90625H47.2031C46.9669 0.90625 46.7404 1.00173 46.5734 1.17168C46.4063 1.34164 46.3125 1.57215 46.3125 1.8125V2.71875H27.7187C26.9135 2.71932 26.1213 2.92486 25.4142 3.31665L16.6947 8.15625H6.23438C4.73612 8.15625 3.5625 9.74853 3.5625 11.7812C3.5625 13.6785 4.58505 15.191 5.93947 15.3848L1.92408 29.2165C1.92052 29.2288 1.91718 29.2413 1.91406 29.2536C1.8259 29.613 1.7813 29.982 1.78125 30.3525V56.1875C1.78125 56.4279 1.87508 56.6584 2.04211 56.8283C2.20913 56.9983 2.43567 57.0938 2.67188 57.0938H42.75C42.9862 57.0938 43.2127 56.9983 43.3798 56.8283C43.5468 56.6584 43.6406 56.4279 43.6406 56.1875V30.4282C43.6407 29.9954 43.5797 29.5648 43.4596 29.1496L39.7488 16.3117C40.9573 16.3027 42.1183 15.832 43.0016 14.9928C43.885 14.1537 44.4262 13.0074 44.518 11.7812H46.3125V13.5938C46.3125 13.8341 46.4063 14.0646 46.5734 14.2346C46.7404 14.4045 46.9669 14.5 47.2031 14.5H54.3281C54.5643 14.5 54.7909 14.4045 54.9579 14.2346C55.1249 14.0646 55.2188 13.8341 55.2188 13.5938V1.8125C55.2188 1.57215 55.1249 1.34164 54.9579 1.17168C54.7909 1.00173 54.5643 0.90625 54.3281 0.90625ZM5.34375 11.7812C5.34375 10.6748 5.87122 9.96875 6.23438 9.96875H31.6937L28.1312 13.5938H6.23438C5.87122 13.5938 5.34375 12.8877 5.34375 11.7812ZM33.0859 29.2537C32.9978 29.6131 32.9532 29.9822 32.9531 30.3526V55.2812H3.5625V30.3525C3.56259 30.1361 3.58796 29.9206 3.63809 29.7104L7.79052 15.4062H26.5198C26.0549 16.2056 25.8784 17.1448 26.0207 18.0622C26.1629 18.9797 26.6151 19.818 27.2994 20.4327C27.9836 21.0475 28.8571 21.4003 29.7694 21.4304C30.6818 21.4604 31.5758 21.1659 32.2977 20.5975L36.5824 17.2062L33.096 29.2166C33.0924 29.2289 33.0891 29.2414 33.0859 29.2537ZM38.2969 52.9379L40.5998 55.2812H35.9939L38.2969 52.9379ZM41.7508 29.6614C41.8229 29.9104 41.8594 30.1687 41.8594 30.4282V53.9996L39.1875 51.2808V31.7188C39.1875 31.4784 39.0937 31.2479 38.9266 31.0779C38.7596 30.908 38.5331 30.8125 38.2969 30.8125C38.0607 30.8125 37.8341 30.908 37.6671 31.0779C37.5001 31.2479 37.4062 31.4784 37.4062 31.7188V51.281L34.7344 53.9997V30.3525C34.7345 30.1361 34.7598 29.9206 34.81 29.7104L38.2945 17.7053L41.7508 29.6614ZM46.3125 9.96875H44.172C43.795 9.9692 43.4336 10.1218 43.167 10.393C42.9004 10.6643 42.7504 11.0321 42.75 11.4157C42.7491 12.2334 42.4294 13.0174 41.8612 13.5956C41.2929 14.1738 40.5225 14.4991 39.7189 14.5H37.5295C37.2517 14.5005 36.9818 14.5947 36.7622 14.7679L31.2039 19.1672C30.774 19.5077 30.2327 19.6687 29.6903 19.6172C29.1478 19.5657 28.6451 19.3057 28.2845 18.8901C27.9239 18.4745 27.7327 17.9346 27.7497 17.3805C27.7667 16.8264 27.9908 16.2998 28.3762 15.908L34.4734 9.70367C34.5981 9.57696 34.683 9.41545 34.7175 9.23961C34.7519 9.06376 34.7343 8.88147 34.6669 8.71581C34.5995 8.55014 34.4853 8.40855 34.3388 8.30894C34.1922 8.20934 34.02 8.1562 33.8438 8.15625H20.4147L26.2673 4.9078C26.7127 4.66104 27.2116 4.5316 27.7187 4.53125H46.3125V9.96875ZM53.4375 12.6875H48.0938V2.71875H53.4375V12.6875Z" fill="#A27BB5"/>
<path d="M17.8125 29.9062C17.8125 29.6659 17.7187 29.4354 17.5516 29.2654C17.3846 29.0955 17.1581 29 16.9219 29C16.6857 29 16.4591 29.0955 16.2921 29.2654C16.1251 29.4354 16.0312 29.6659 16.0312 29.9062V32.625H14.25V29.9062C14.25 29.6659 14.1562 29.4354 13.9891 29.2654C13.8221 29.0955 13.5956 29 13.3594 29C13.1232 29 12.8966 29.0955 12.7296 29.2654C12.5626 29.4354 12.4688 29.6659 12.4688 29.9062V32.625H10.6875V29.9062C10.6875 29.6659 10.5937 29.4354 10.4266 29.2654C10.2596 29.0955 10.0331 29 9.79688 29C9.56067 29 9.33413 29.0955 9.16711 29.2654C9.00008 29.4354 8.90625 29.6659 8.90625 29.9062V33.5312H8.90792C8.9073 33.6718 8.93894 33.8106 9.00032 33.9366L10.6724 37.3394L9.93548 47.8375C9.90934 48.2099 9.95885 48.5838 10.0809 48.9359C10.203 49.288 10.3951 49.6107 10.6451 49.8839C10.8951 50.1572 11.1978 50.3751 11.5342 50.5241C11.8707 50.6731 12.2336 50.75 12.6006 50.75H14.1182C14.4851 50.75 14.8481 50.6731 15.1845 50.5241C15.5209 50.3751 15.8236 50.1572 16.0736 49.8839C16.3237 49.6107 16.5157 49.288 16.6378 48.9359C16.7599 48.5838 16.8094 48.2099 16.7833 47.8375L16.0464 37.3394L17.7184 33.9366C17.7798 33.8106 17.8114 33.6718 17.8108 33.5312H17.8125V29.9062ZM15.4808 34.4375L14.5902 36.25H12.1285L11.2379 34.4375H15.4808ZM14.7701 48.6487C14.6871 48.7403 14.5863 48.8133 14.474 48.863C14.3618 48.9127 14.2406 48.9381 14.1182 48.9375H12.6006C12.4783 48.9375 12.3573 48.9119 12.2451 48.8622C12.133 48.8126 12.0321 48.7399 11.9488 48.6489C11.8654 48.5578 11.8014 48.4502 11.7607 48.3329C11.72 48.2155 11.7035 48.0909 11.7122 47.9668L12.4074 38.0625H14.3111L15.0064 47.9668C15.0156 48.0909 14.9994 48.2157 14.9588 48.3331C14.9181 48.4505 14.8538 48.558 14.7701 48.6487Z" fill="#4C2770"/>
</svg>
