<svg width="57" height="57" viewBox="0 0 57 57" fill="none" xmlns="http://www.w3.org/2000/svg">
<g clip-path="url(#clip0)">
<path d="M8.86114 21.0484C8.65277 20.8407 8.3786 20.7313 8.0825 20.7313C7.7864 20.7313 7.51224 20.8516 7.30387 21.0484C7.09551 21.2562 6.98584 21.5295 6.98584 21.8247C6.98584 22.109 7.10647 22.3933 7.30387 22.6011C7.51224 22.8088 7.7864 22.9182 8.0825 22.9182C8.36764 22.9182 8.65277 22.7979 8.86114 22.6011C9.0695 22.3933 9.17917 22.12 9.17917 21.8247C9.17917 21.5405 9.0695 21.2562 8.86114 21.0484Z" fill="white"/>
<path d="M26.9232 6.7027H26.9122C26.3091 6.7027 25.8156 7.19474 25.8156 7.79612C25.8156 8.3975 26.3091 8.88954 26.9122 8.88954H26.9232C27.5263 8.88954 28.0198 8.3975 28.0198 7.79612C28.0198 7.19474 27.5263 6.7027 26.9232 6.7027Z" fill="white"/>
<path d="M55.0526 27.915H1.09667C0.493499 27.915 0 28.4071 0 29.0085V55.9066C0 56.508 0.493499 57 1.09667 57H55.0526C55.6558 57 56.1493 56.508 56.1493 55.9066V29.0085C56.1493 28.4071 55.6558 27.915 55.0526 27.915ZM53.9559 36.8811H44.3053C43.7021 36.8811 43.2086 37.3731 43.2086 37.9745C43.2086 38.5759 43.7021 39.0679 44.3053 39.0679H53.9559V45.8471H19.3671C18.7639 45.8471 18.2704 46.3392 18.2704 46.9406C18.2704 47.5419 18.7639 48.034 19.3671 48.034H53.9559V54.8132H2.19333V48.034H11.844C12.4472 48.034 12.9407 47.5419 12.9407 46.9406C12.9407 46.3392 12.4472 45.8471 11.844 45.8471H2.19333V39.0679H36.7822C37.3853 39.0679 37.8788 38.5759 37.8788 37.9745C37.8788 37.3731 37.3853 36.8811 36.7822 36.8811H2.19333V30.1019H3.23516H53.9559V36.8811Z" fill="#A27BB5"/>
<path d="M3.67386 5.0735C3.70676 5.09536 6.94192 7.26034 7.50122 10.3875C8.02762 10.2126 8.87205 9.99389 9.79325 9.96109V2.75544H10.2319V9.95015C11.3066 9.96109 12.0743 10.1142 12.4801 10.2126C12.6226 8.8786 13.0613 7.83985 13.7961 7.14006C14.4541 6.51681 15.123 6.3856 15.145 6.37467H15.134C15.3643 6.34186 15.5836 6.23252 15.7481 6.06851C15.9565 5.86076 16.0662 5.5874 16.0662 5.29218C16.0662 5.00789 15.9455 4.7236 15.7481 4.51585C15.5398 4.3081 15.2656 4.19876 14.9695 4.19876C14.9037 4.19876 14.8489 4.20969 14.7831 4.22063C14.136 4.31904 13.2368 4.6908 12.4252 5.42339V1.66202C12.4252 1.06064 11.9317 0.568604 11.3286 0.568604H8.69659C8.09342 0.568604 7.59992 1.06064 7.59992 1.66202V5.75142C6.33876 4.20969 4.97889 3.31309 4.86922 3.23655C4.36476 2.90852 3.68483 3.05067 3.35583 3.55364C3.02683 4.06755 3.16939 4.74547 3.67386 5.0735Z" fill="#A27BB5"/>
<path d="M51.3677 16.2373C51.7406 15.4063 51.938 14.5097 51.938 13.5803C51.938 9.99387 49.0099 7.07443 45.4128 7.07443C44.2833 7.07443 43.1866 7.35872 42.2215 7.90543C40.9494 7.00883 39.4251 6.52772 37.8459 6.52772C37.7362 6.52772 37.6375 6.52772 37.5278 6.53866C36.3654 3.17092 33.1412 0.820068 29.5002 0.820068C26.2212 0.820068 23.2492 2.71169 21.8455 5.62018C21.5823 5.59832 21.3191 5.58738 21.0559 5.58738C17.6124 5.58738 14.5417 7.66488 13.2367 10.7593C13.0064 10.6937 12.7651 10.628 12.5238 10.5734C12.5238 10.5624 11.0653 10.3547 10.2976 10.3438C10.155 10.3438 10.0015 10.3438 9.85895 10.3547C8.48812 10.5078 8.00558 10.628 7.58885 10.7483C3.88212 11.8417 1.18433 15.0892 1.18433 18.9162C1.18433 20.5016 2.08359 24.2739 2.97189 27.6307H5.24199C4.05759 23.2024 3.37766 20.0533 3.37766 18.9162C3.37766 18.621 3.39959 18.3367 3.44346 18.0524C3.50926 18.0633 3.58602 18.0742 3.65182 18.0742H9.06935C9.67252 18.0742 10.166 17.5822 10.166 16.9808C10.166 16.3794 9.67252 15.8874 9.06935 15.8874H4.21112C5.39552 13.8755 7.72045 12.4978 10.3963 12.4978C14.2675 12.4978 17.415 15.3735 17.415 18.9162C17.415 19.2005 17.3711 19.7253 17.1956 20.6985H12.8419C12.2387 20.6985 11.7452 21.1905 11.7452 21.7919C11.7452 22.3933 12.2387 22.8853 12.8419 22.8853H16.4828C15.1668 24.1099 14.2675 25.7719 13.9934 27.6307H16.2196C16.757 24.93 19.1587 22.8853 22.021 22.8853C24.8833 22.8853 27.285 24.93 27.8223 27.6307H30.3556C30.3556 27.587 30.3447 27.5433 30.3447 27.4886C30.3447 26.1109 31.4304 24.9847 32.7573 24.9847C34.0843 24.9847 35.17 26.1109 35.17 27.4886C35.17 27.5323 35.17 27.5761 35.159 27.6307H37.3524C37.3524 27.587 37.3524 27.5433 37.3524 27.4886C37.3524 26.8872 37.2427 26.3186 37.0453 25.7938C36.497 24.0115 34.8629 22.3167 34.8629 22.3167C34.1391 18.5991 30.8382 15.7781 26.9011 15.7781C25.1245 15.7781 23.4357 16.3357 22.021 17.4073C20.8585 18.282 19.9373 19.4738 19.389 20.8187C19.5315 19.9987 19.5973 19.3645 19.5973 18.9162C19.5973 17.4291 19.1916 16.0405 18.4787 14.8158C19.06 13.2523 20.5514 12.1916 22.2513 12.1916C22.5254 12.1916 22.7886 12.2135 23.0518 12.2682C23.5892 12.3775 24.1266 12.0714 24.302 11.5575C24.5323 10.8905 24.9491 10.3 25.4864 9.84079C25.947 9.44715 26.0019 8.7583 25.6071 8.29906C25.2123 7.83983 24.5214 7.78516 24.0608 8.17879C23.4576 8.6927 22.9641 9.31594 22.5912 10.0048C22.4706 9.99387 22.3609 9.99387 22.2403 9.99387C20.0579 9.99387 18.0839 11.131 16.9763 12.9133C16.4499 12.4103 15.8687 11.973 15.2326 11.6012C16.1977 9.29408 18.4787 7.74142 21.0449 7.74142C21.4617 7.74142 21.8894 7.78516 22.3061 7.8617C22.8435 7.97104 23.3699 7.66488 23.5563 7.15097C24.4446 4.64704 26.8244 2.97411 29.4893 2.97411C32.0774 2.97411 34.3914 4.58143 35.3345 6.92135C32.3735 7.9601 30.246 10.7702 30.246 14.0723C30.246 14.6737 30.7395 15.1657 31.3426 15.1657C31.9458 15.1657 32.4393 14.6737 32.4393 14.0723C32.4393 11.0982 34.8629 8.69269 37.8459 8.69269C39.1619 8.69269 40.434 9.1738 41.4319 10.0485C41.8267 10.3984 42.397 10.4203 42.8137 10.1032C43.5704 9.53463 44.4697 9.23941 45.4128 9.23941C47.8036 9.23941 49.7447 11.1748 49.7447 13.5584C49.7447 14.4988 49.4486 15.3844 48.8893 16.1389C48.6699 16.4341 48.6151 16.8168 48.7357 17.1558C48.8564 17.4947 49.1415 17.7571 49.5034 17.8446C51.4335 18.3257 52.7715 20.0533 52.7715 22.0324C52.7715 24.4161 50.8304 26.3514 48.4396 26.3514C48.1655 26.3514 47.8913 26.3296 47.6171 26.2749C47.0907 26.1765 46.5643 26.4717 46.3779 26.9856C46.3011 27.2043 46.2024 27.4121 46.0928 27.6089H51.7954C53.6927 26.4717 54.9648 24.3942 54.9648 22.0324C54.9648 19.5504 53.5391 17.3198 51.3677 16.2373ZM26.9121 17.9758C29.8073 17.9758 32.2309 20.0643 32.7354 22.8088C31.222 22.8197 29.8731 23.5851 29.0396 24.7441C27.6359 22.3276 25.0149 20.6985 22.021 20.6985C21.9881 20.6985 21.9552 20.6985 21.9223 20.6985C22.997 19.0474 24.8723 17.9758 26.9121 17.9758Z" fill="#4C2770"/>
</g>
<defs>
<clipPath id="clip0">
<rect width="56.1493" height="57" fill="white"/>
</clipPath>
</defs>
</svg>
