<svg width="128" height="77" viewBox="0 0 128 77" fill="none" xmlns="http://www.w3.org/2000/svg">
<path d="M97.0659 3.35628C96.2495 2.63056 95.0702 2.72127 94.3444 3.447C94.2537 3.53771 94.2537 3.53771 94.163 3.62843L93.9816 3.80986L81.6442 17.1451C79.7392 18.8687 78.3785 19.1408 76.1106 18.6872C73.1169 18.143 70.9398 19.0501 69.0347 21.2273C64.5897 26.2167 63.6825 27.4867 59.2374 32.3853C58.7839 32.9296 57.8767 33.4739 58.5117 34.1996C59.2374 35.0161 59.7817 33.9275 60.2353 33.5646C64.4082 29.936 64.8618 29.8453 68.944 26.2167C69.4883 25.6724 70.0326 25.2188 70.7583 25.9445C71.4841 26.6702 71.0305 27.2145 70.5769 27.8495C66.8576 31.9317 66.8576 32.3853 63.1382 36.5582C62.8661 36.8304 62.5939 37.1933 62.4125 37.5561C62.2311 37.8283 62.1403 38.1004 62.5032 38.3726C63.0475 38.8261 63.4104 38.2819 63.8639 38.0097C64.0454 37.919 64.2268 37.7376 64.3175 37.6468C68.3997 34.0182 68.8533 33.9275 72.9355 30.2989C73.4798 29.7546 74.0241 29.301 74.7498 30.0267C75.4756 30.7524 75.1127 31.3875 74.4777 32.0225C70.7583 36.1047 70.6676 36.649 66.9483 40.7312C66.8576 40.9126 66.6761 41.0033 66.5854 41.1848C66.3133 41.5476 66.0411 41.9105 66.4947 42.3641C66.9483 42.7269 67.2204 42.5455 67.5833 42.1826C69.1255 40.8219 75.022 35.8325 78.197 32.9296C78.5599 32.5668 78.832 32.2039 79.1949 31.9317C81.7349 30.1174 82.6421 27.6681 82.0071 24.5838C81.5535 22.4066 82.4607 21.0459 83.9121 19.413C84.0028 19.3223 95.0702 8.43636 96.9752 6.53133C97.0659 6.44062 97.1566 6.3499 97.2473 6.25919C98.0638 5.44274 97.9731 4.17272 97.0659 3.35628Z" fill="#A27BB5"/>
<path d="M98.0635 37.4658L75.0217 60.5983L76.2918 63.5919L101.329 38.5544C101.601 38.2822 101.783 37.9194 101.783 37.4658C101.783 37.1029 101.601 36.6494 101.329 36.3772L90.8063 25.8542C90.1713 25.2192 89.2641 25.2192 88.6291 25.8542C87.9941 26.4892 87.9941 27.3964 88.6291 28.0314L98.0635 37.4658Z" fill="#A27BB5"/>
<path d="M50.8009 57.7859L30.3898 37.4656L64.2268 3.62863L73.4798 12.8816C74.1148 13.5166 75.022 13.5166 75.657 12.8816C76.292 12.2466 76.292 11.3395 75.657 10.7045L65.3154 0.453579C65.0433 0.181431 64.6804 0 64.2268 0C63.8639 0 63.4104 0.181431 63.1382 0.453579L27.2148 36.377C26.5798 37.012 26.5798 37.9192 27.2148 38.5542L46.4465 57.7859H50.8009Z" fill="#A27BB5"/>
<path d="M0 61.7773H6.3501C9.52515 61.7773 11.4302 63.5917 11.4302 66.1317C11.4302 68.6717 9.52515 70.5768 6.3501 70.5768H2.99362V76.2919H0V61.7773ZM6.16867 68.0367C7.62012 68.0367 8.43656 67.4017 8.43656 66.2224C8.43656 65.0431 7.52941 64.4081 6.16867 64.4081H2.99362V68.0367H6.16867Z" fill="#4C2770"/>
<path d="M34.1093 61.7773H37.1029V73.6611H44.4508V76.2919H34.1093V61.7773Z" fill="#4C2770"/>
<path d="M47.2631 74.2054L54.7925 64.4988H47.6259V61.7773H58.8747V63.8638L51.3453 73.6611H59.2375V76.2919H47.2631V74.2054Z" fill="#4C2770"/>
<path d="M68.0367 61.6868H70.9396L77.1083 76.292H73.9333L72.4818 72.9355H66.3131L64.8617 76.292H61.6866L68.0367 61.6868ZM71.5747 70.4862L69.4882 65.4061L67.311 70.4862H71.5747Z" fill="#4C2770"/>
<path d="M80.5555 61.7773H87.3592C89.8993 61.7773 91.8043 63.0474 91.8043 65.406C91.8043 66.9481 90.8064 67.946 89.99 68.3089C91.4414 68.581 92.9836 69.9418 92.9836 72.2097C92.9836 74.659 90.9879 76.3826 87.9035 76.3826H80.5555V61.7773V61.7773ZM86.9964 67.4924C88.2664 67.4924 88.9921 66.9481 88.9921 65.9503C88.9921 64.9524 88.2664 64.3174 86.9964 64.3174H83.6399V67.4924H86.9964ZM87.3592 73.7518C88.8107 73.7518 89.7178 73.1168 89.7178 71.8468C89.7178 70.5768 88.8107 69.9418 87.3592 69.9418H83.6399V73.7518H87.3592V73.7518Z" fill="#4C2770"/>
<path d="M96.3401 69.0345C96.3401 64.8616 99.5151 61.5051 103.869 61.5051C108.224 61.5051 111.399 64.8616 111.399 69.0345C111.399 73.2075 108.224 76.5639 103.869 76.5639C99.5151 76.6547 96.3401 73.2075 96.3401 69.0345ZM108.315 69.0345C108.315 66.3131 106.41 64.3173 103.869 64.3173C101.329 64.3173 99.4244 66.3131 99.4244 69.0345C99.4244 71.756 101.329 73.7518 103.869 73.7518C106.41 73.8425 108.315 71.8467 108.315 69.0345Z" fill="#4C2770"/>
<path d="M120.652 66.1317L123.736 61.7773H127.183L122.376 68.4903L128 76.2919H124.553L120.561 70.9396L116.66 76.2919H113.213L118.838 68.4903L114.03 61.7773H117.568L120.652 66.1317Z" fill="#4C2770"/>
<path d="M23.4954 66.7669C31.9319 66.7669 31.2062 58.5117 31.2062 58.5117C22.1346 58.6024 23.4046 66.7669 23.4954 66.7669Z" fill="#94C11F"/>
<path d="M84.0935 40.0964C70.1233 40.2779 69.2161 54.7924 69.4883 54.7924C84.2749 56.2438 84.0935 40.0964 84.0935 40.0964Z" fill="#94C11F"/>
<path d="M46.8092 37.1934C46.0835 57.9673 67.5831 60.4166 67.5831 60.0537C70.8489 38.1912 46.8092 37.1934 46.8092 37.1934Z" fill="#94C11F"/>
<path d="M26.5798 67.4924C26.7612 67.9459 26.7612 68.4902 26.7612 69.0345C26.7612 71.756 24.8562 73.7518 22.3162 73.7518C19.7761 73.7518 17.8711 71.756 17.8711 69.0345C17.8711 66.3131 19.7761 64.3173 22.3162 64.3173C22.3162 64.3173 22.3162 64.3173 22.4069 64.3173C22.4976 63.5009 22.7697 62.503 23.2233 61.5958C22.9512 61.5958 22.5883 61.5051 22.3162 61.5051C17.9618 61.5051 14.7867 64.8616 14.7867 69.0345C14.7867 73.2075 17.9618 76.5639 22.3162 76.5639C26.6705 76.5639 29.8456 73.2075 29.8456 69.0345C29.8456 68.0367 29.6641 67.0388 29.3013 66.1316C28.4848 66.7666 27.5777 67.2202 26.5798 67.4924Z" fill="#4C2770"/>
</svg>
