<svg width="0" height="0" xmlns="http://www.w3.org/2000/svg">
    <symbol id="ig" viewBox="0 0 22 22">
        <g clip-path="url(#clip0)">
        <path d="M15.7616 0H5.85009C2.6243 0 0 2.6243 0 5.85009V15.7618C0 18.9874 2.6243 21.6117 5.85009 21.6117H15.7618C18.9874 21.6117 21.6117 18.9874 21.6117 15.7618V5.85009C21.6117 2.6243 18.9874 0 15.7616 0V0ZM20.3447 15.7618C20.3447 18.2888 18.2888 20.3447 15.7616 20.3447H5.85009C3.32291 20.3447 1.26697 18.2888 1.26697 15.7618V5.85009C1.26697 3.32291 3.32291 1.26697 5.85009 1.26697H15.7618C18.2888 1.26697 20.3447 3.32291 20.3447 5.85009V15.7618Z"/>
        <path d="M10.8059 4.89673C7.54745 4.89673 4.89661 7.54757 4.89661 10.806C4.89661 14.0645 7.54745 16.7153 10.8059 16.7153C14.0643 16.7153 16.7152 14.0645 16.7152 10.806C16.7152 7.54757 14.0643 4.89673 10.8059 4.89673ZM10.8059 15.4483C8.24623 15.4483 6.16358 13.3658 6.16358 10.806C6.16358 8.24635 8.24623 6.1637 10.8059 6.1637C13.3657 6.1637 15.4482 8.24635 15.4482 10.806C15.4482 13.3658 13.3657 15.4483 10.8059 15.4483Z"/>
        <path d="M16.8565 2.79785C15.8936 2.79785 15.1104 3.58122 15.1104 4.54398C15.1104 5.5069 15.8936 6.29027 16.8565 6.29027C17.8194 6.29027 18.6028 5.5069 18.6028 4.54398C18.6028 3.58105 17.8194 2.79785 16.8565 2.79785ZM16.8565 5.02313C16.5923 5.02313 16.3773 4.80812 16.3773 4.54398C16.3773 4.27967 16.5923 4.06482 16.8565 4.06482C17.1208 4.06482 17.3358 4.27967 17.3358 4.54398C17.3358 4.80812 17.1208 5.02313 16.8565 5.02313Z"/>
        </g>
        <defs>
        <clipPath id="clip0">
        <rect width="21.6117" height="21.6117" fill="white"/>
        </clipPath>
        </defs>
    </symbol>
    <symbol id="fb" viewBox="0 0 11 21">
        <path d="M10.0978 11.604L10.6581 7.8706H7.15453V5.44785C7.15453 4.42646 7.64395 3.43085 9.21309 3.43085H10.8059V0.252227C10.8059 0.252227 9.36047 0 7.9785 0C5.09321 0 3.20724 1.78815 3.20724 5.02519V7.8706H0V11.604H3.20724V20.6294H7.15453V11.604H10.0978Z"/>
    </symbol>
    <symbol id="vk" viewBox="0 0 21 12">
        <path d="M19.7014 11.7377L16.9284 11.7775C16.9284 11.7775 16.3342 11.8968 15.5419 11.3398C14.512 10.6236 13.5216 8.79332 12.7689 9.03206C12.0163 9.27079 12.0163 10.9419 12.0163 10.9419C12.0163 10.9419 12.0163 11.3 11.8578 11.499C11.6597 11.6979 11.3032 11.7377 11.3032 11.7377H10.0752C10.0752 11.7377 7.34181 11.8969 4.96496 9.39016C2.39005 6.64473 0.0528188 1.23345 0.0528188 1.23345C0.0528188 1.23345 -0.0660234 0.875353 0.0528188 0.716198C0.211275 0.517254 0.64703 0.517254 0.64703 0.517254H3.57847C3.57847 0.517254 3.85577 0.557043 4.05384 0.716198C4.2123 0.835565 4.29152 1.0743 4.29152 1.0743C4.29152 1.0743 4.76689 2.26796 5.40072 3.38205C6.62875 5.53064 7.22296 5.96832 7.61911 5.76938C8.21332 5.45107 8.05486 2.74543 8.05486 2.74543C8.05486 2.74543 8.05486 1.75071 7.73795 1.35282C7.50026 1.03451 7.02489 0.915142 6.82682 0.875354C6.66837 0.835565 6.94567 0.477466 7.30219 0.278522C7.81718 1.1858e-07 8.76791 0 9.87711 0C10.7486 0 10.9863 0.0795776 11.3428 0.159155C12.3728 0.397888 12.0163 1.35282 12.0163 3.66057C12.0163 4.37677 11.8974 5.41128 12.4124 5.76938C12.6501 5.92853 13.2047 5.80916 14.5912 3.42184C15.2646 2.30775 15.74 0.99472 15.74 0.99472C15.74 0.99472 15.8588 0.755987 16.0173 0.67641C16.1757 0.557043 16.4134 0.596832 16.4134 0.596832H19.5033C19.5033 0.596832 20.4541 0.477465 20.5729 0.915142C20.7314 1.35282 20.2164 2.38733 18.9487 4.09825C16.8492 6.88346 16.6511 6.60494 18.3545 8.23628C20.0183 9.78804 20.3352 10.544 20.4144 10.6236C21.1671 11.6581 19.7014 11.7377 19.7014 11.7377Z"/>
    </symbol>
    <symbol id="leaf" viewBox="0 0 38 23">
        <path d="M37.3022 2.90295C23.332 3.08439 22.4249 17.5989 22.697 17.5989C37.4837 19.0504 37.3022 2.90295 37.3022 2.90295Z" fill="#94C11F"/>
        <path d="M0.0179679 0C-0.707758 20.7739 20.7919 23.2232 20.7919 22.8604C24.0576 0.99787 0.0179679 0 0.0179679 0Z" fill="#94C11F"/>
    </symbol>
</svg>