<svg width="55" height="55" viewBox="0 0 55 55" fill="none" xmlns="http://www.w3.org/2000/svg">
<g clip-path="url(#clip0)">
<path d="M48.3776 13.7869C48.3642 13.7869 48.3509 13.7871 48.3375 13.7876C47.7637 13.8004 47.3025 14.2697 47.3025 14.8465C47.3025 14.9093 47.308 14.9709 47.3184 15.0305V49.3246C47.3184 50.8629 46.0672 52.1146 44.5294 52.1146H10.8339V48.9158H11.2303C12.8782 48.9158 14.2584 47.539 14.2584 45.8884C14.2584 44.2185 12.9 42.86 11.2301 42.86H10.8339V36.5176H11.2303C12.8759 36.5176 14.2584 35.1399 14.2584 33.49C14.2584 31.8201 12.9 30.4616 11.2301 30.4616H10.8339V24.12H11.2301C12.0389 24.12 12.7995 23.8047 13.3719 23.2325C13.9435 22.661 14.2584 21.9006 14.2584 21.0916C14.2584 20.309 13.9598 19.5949 13.4706 19.0569C12.9163 18.4472 12.1173 18.0639 11.2303 18.0639H10.8339V11.7216H11.2301C12.8804 11.7216 14.2584 10.3436 14.2584 8.69318C14.2584 6.74853 12.6164 5.66577 10.8339 5.66577V2.11848H44.5294C46.0673 2.11848 47.3184 3.37008 47.3184 4.90852V5.34122C47.3079 5.40085 47.3025 5.4625 47.3025 5.52521C47.3025 6.10249 47.7643 6.57195 48.3387 6.58424C48.3516 6.58456 48.367 6.58487 48.3776 6.58487C48.9625 6.58487 49.4369 6.11055 49.4369 5.52563V4.90852C49.4369 2.20195 47.2354 0 44.5294 0H9.77467C9.18976 0 8.71543 0.474328 8.71543 1.05924V5.66577H8.31875C6.64917 5.66577 5.29102 7.02393 5.29102 8.6935C5.29102 10.3631 6.64917 11.7213 8.31875 11.7213H8.71543V18.0639H8.31875C6.64917 18.0639 5.29102 19.4221 5.29102 21.0917C5.29102 22.7613 6.64917 24.1195 8.31875 24.1195H8.71543V30.4621H8.31875C6.64917 30.4621 5.29102 31.8202 5.29102 33.4898C5.29102 35.1594 6.64917 36.5176 8.31875 36.5176H8.71543V42.8601H8.31875C6.64917 42.8601 5.29102 44.2184 5.29102 45.888C5.29102 47.5576 6.64917 48.9158 8.31875 48.9158H8.71543V53.1739C8.71543 53.7588 9.18976 54.2331 9.77467 54.2331H44.5294C47.2354 54.2331 49.4369 52.0312 49.4369 49.3246V14.8461C49.4369 14.2612 48.9626 13.7869 48.3776 13.7869ZM7.4095 8.6935C7.4095 8.19216 7.81741 7.78425 8.31875 7.78425H9.77266C9.7733 7.78425 9.77404 7.78436 9.77467 7.78436H11.2301C11.7219 7.78436 12.1395 8.2018 12.1395 8.6935C12.1395 9.19484 11.7316 9.60286 11.2303 9.60286H8.31875C7.8173 9.60286 7.4095 9.19495 7.4095 8.6935ZM7.4095 21.0917C7.4095 20.5904 7.81741 20.1823 8.31875 20.1823H9.76652C9.76927 20.1823 9.77192 20.1828 9.77467 20.1828H11.2301C11.4809 20.1828 11.7083 20.2847 11.8731 20.4492C12.0376 20.6138 12.1395 20.8411 12.1395 21.0917C12.1395 21.593 11.7316 22.0011 11.2303 22.0011H8.31875C7.8173 22.0011 7.4095 21.593 7.4095 21.0917ZM7.4095 33.4898C7.4095 32.9884 7.81741 32.5805 8.31875 32.5805H11.2303C11.7316 32.5805 12.1395 32.9884 12.1395 33.4898C12.1395 33.9832 11.7196 34.3988 11.2301 34.3988H9.77467C9.77255 34.3988 9.77065 34.3991 9.76853 34.3991H8.31875C7.8173 34.3991 7.4095 33.9911 7.4095 33.4898ZM7.4095 45.888C7.4095 45.3866 7.81741 44.9786 8.31875 44.9786H11.2303C11.7316 44.9786 12.1395 45.3866 12.1395 45.888C12.1395 46.3811 11.7206 46.7972 11.2301 46.7972H9.77467C9.77393 46.7972 9.7733 46.7973 9.77266 46.7973H8.31875C7.8173 46.7973 7.4095 46.3893 7.4095 45.888Z" fill="#A27BB5"/>
<path d="M29.7945 17.8347C29.2095 17.8347 28.7352 18.309 28.7352 18.8939V19.4756C24.7827 19.8175 22.7741 22.0538 21.7742 23.9555C21.2801 24.8953 20.9889 25.8325 20.8171 26.6018L20.4132 26.3349C19.9251 26.0123 19.2679 26.1464 18.9455 26.6345C18.6231 27.1226 18.7572 27.7798 19.2452 28.1022L21.0458 29.292C21.2169 29.4052 21.4247 29.4676 21.6298 29.4676H37.9593C38.1682 29.4676 38.3779 29.4031 38.5513 29.2868L40.3168 28.0969C40.802 27.7699 40.9301 27.1116 40.6033 26.6265C40.2762 26.1414 39.6176 26.0134 39.1328 26.34L38.7682 26.5858C38.5959 25.8195 38.3054 24.8889 37.8146 23.9555C36.8147 22.0538 34.8062 19.8175 30.8537 19.4756V18.8939C30.8537 18.309 30.3794 17.8347 29.7945 17.8347ZM36.7707 27.3492H22.8263C22.9526 26.6897 23.1931 25.8093 23.6494 24.9415C24.8335 22.6896 26.9009 21.5478 29.7946 21.5478C35.0252 21.5478 36.4068 25.4064 36.7707 27.3492Z" fill="#4C2770"/>
<path d="M43.1727 12.3592V7.01163C43.1727 6.42672 42.6984 5.95239 42.1135 5.95239H18.1062C17.5213 5.95239 17.047 6.42672 17.047 7.01163V12.3591C17.047 12.944 17.5213 13.4183 18.1062 13.4183H42.1134C42.6984 13.4184 43.1727 12.9441 43.1727 12.3592ZM41.0543 11.3H19.1655V8.07087H41.0541L41.0543 11.3Z" fill="#4C2770"/>
<path d="M42.5774 33.5713C42.5774 32.9864 42.1031 32.512 41.5182 32.512H18.0357C17.4508 32.512 16.9764 32.9864 16.9764 33.5713C16.9764 34.1562 17.4508 34.6305 18.0357 34.6305H41.5182C42.1032 34.6305 42.5774 34.1562 42.5774 33.5713Z" fill="#A27BB5"/>
<path d="M49.3561 9.83927C49.1177 9.2676 48.5767 9.0781 48.1152 9.2068C47.5585 9.36198 47.1134 9.96013 47.3997 10.6497C47.6454 11.2418 48.2271 11.436 48.6987 11.2833C49.2322 11.1106 49.6311 10.5104 49.3561 9.83927Z" fill="#A27BB5"/>
<path d="M31.2572 40.5227C30.9254 40.6262 30.6992 40.9335 30.6992 41.2812V46.7375C30.6992 47.1764 31.0548 47.5319 31.4937 47.5319C31.9325 47.5319 32.2881 47.1764 32.2881 46.7375V43.8296L34.5294 47.0753C34.7584 47.4061 35.1422 47.5467 35.5071 47.4324C35.8787 47.3164 36.1186 46.9713 36.1186 46.5457L36.0677 41.2634C36.0633 40.8246 35.7037 40.4755 35.2656 40.4766C34.8269 40.4808 34.4746 40.84 34.4788 41.2786L34.5075 44.2475L32.1473 40.8297C31.9499 40.5437 31.5895 40.4196 31.2572 40.5227Z" fill="#4C2770"/>
<path d="M22.4703 40.4781C22.0551 40.4539 21.6741 40.7149 21.5456 41.1111C21.5426 41.1202 21.5398 41.1294 21.5371 41.1388L20.663 44.2052L19.756 41.1308C19.7533 41.1213 19.7502 41.1118 19.7471 41.1024C19.6143 40.7074 19.2321 40.4517 18.8154 40.479C18.3997 40.507 18.0542 40.8122 17.9739 41.2305L17.0131 46.5538C16.9353 46.9856 17.2221 47.3988 17.6538 47.4767C18.0852 47.5543 18.4989 47.2679 18.5768 46.836L19.0345 44.2999L19.7952 46.8783C19.798 46.8877 19.8009 46.8969 19.804 46.9062C19.9298 47.2811 20.279 47.5321 20.6742 47.5321H20.6788C21.0757 47.5301 21.4248 47.2752 21.5473 46.8975C21.5503 46.8885 21.553 46.8793 21.5557 46.8701L22.2899 44.2946L22.7773 46.8442C22.8597 47.2752 23.2767 47.5582 23.7067 47.4753C24.1376 47.393 24.4202 46.9768 24.3378 46.5459L23.3181 41.2114C23.2348 40.8031 22.8863 40.5015 22.4703 40.4781Z" fill="#4C2770"/>
<path d="M28.6409 42.0904C29.0797 42.0904 29.4353 41.7348 29.4353 41.296C29.4353 40.8571 29.0797 40.5015 28.6409 40.5015H26.3585C25.9197 40.5015 25.5641 40.8571 25.5641 41.296V46.7126C25.5641 47.1514 25.9197 47.507 26.3585 47.507H28.6409C29.0797 47.507 29.4353 47.1514 29.4353 46.7126C29.4353 46.2737 29.0797 45.9182 28.6409 45.9182H27.1529V44.7988H28.4726C28.9114 44.7988 29.267 44.4432 29.267 44.0043C29.267 43.5655 28.9114 43.2099 28.4726 43.2099H27.1529V42.0905H28.6409V42.0904Z" fill="#4C2770"/>
<path d="M38.6023 47.1187C39.0301 47.3921 39.5126 47.5312 40.0365 47.5319H40.041C40.4912 47.5319 40.9142 47.4337 41.298 47.2403C42.2443 46.7638 42.7654 45.9783 42.7654 45.0285V41.2709C42.7654 40.832 42.4099 40.4764 41.971 40.4764C41.5322 40.4764 41.1766 40.832 41.1766 41.2709V45.0285C41.1766 45.2729 41.1062 45.558 40.5832 45.8213C40.4207 45.9031 40.2434 45.9429 40.0411 45.9429C40.0403 45.9429 40.0396 45.9429 40.0389 45.9429C39.8192 45.9426 39.6291 45.8892 39.4579 45.7797C39.0491 45.5185 38.9669 45.3002 38.9669 45.0324V41.2707C38.9669 40.8319 38.6113 40.4763 38.1725 40.4763C37.7336 40.4763 37.3781 40.8319 37.3781 41.2707V45.0324C37.3781 45.8979 37.79 46.5999 38.6023 47.1187Z" fill="#4C2770"/>
</g>
<defs>
<clipPath id="clip0">
<rect width="54.2331" height="54.2331" fill="white"/>
</clipPath>
</defs>
</svg>
