<svg width="59" height="59" viewBox="0 0 59 59" fill="none" xmlns="http://www.w3.org/2000/svg">
<path d="M29.204 5.31406C29.0161 5.13188 28.7577 5.03452 28.4985 5.04609C26.8068 5.1126 25.1199 5.34972 23.4861 5.75264L23.9478 7.62455C25.1325 7.33249 26.347 7.13489 27.5721 7.03367V25.2632H6.87313C7.12663 24.0679 7.47557 22.8919 7.91415 21.7536L6.11646 21.0595C5.49281 22.6751 5.03688 24.3619 4.7612 26.0728C4.71589 26.3524 4.7959 26.6358 4.97904 26.8517C5.16218 27.0676 5.43015 27.191 5.71258 27.191H28.536C29.0691 27.191 29.5 26.7591 29.5 26.2271V6.00904C29.5 5.74685 29.3939 5.49624 29.204 5.31406Z" fill="#4C2770"/>
<path d="M49.5483 15.0447L48.0061 16.2024C51.0337 20.2306 52.6338 25.0299 52.6338 30.0827C52.6338 30.3902 52.6261 30.7092 52.6107 31.0466H33.3556V7.27561C34.8873 7.53298 36.389 7.9436 37.8339 8.50171L38.5289 6.70401C36.5982 5.95795 34.5721 5.45382 32.5074 5.20706C32.2288 5.17429 31.9589 5.26104 31.7526 5.44322C31.5454 5.6254 31.4278 5.88758 31.4278 6.16422V32.0105C31.4278 32.5426 31.8587 32.9744 32.3917 32.9744H53.5139C54.0161 32.9744 54.4344 32.5879 54.4749 32.0876C54.5337 31.3551 54.5616 30.6996 54.5616 30.0827C54.5616 24.6087 52.8276 19.4093 49.5483 15.0447Z" fill="#4C2770"/>
<path d="M28.5361 29.1188H5.4022C4.86916 29.1188 4.43829 29.5506 4.43829 30.0827C4.43829 31.4293 4.54529 32.7778 4.75735 34.0926L6.66107 33.786C6.51552 32.8857 6.42395 31.9681 6.38636 31.0466H27.5721V53.1317C25.705 52.9775 23.8707 52.5996 22.1039 52.0039L21.4879 53.8315C23.7445 54.592 26.1022 55.0258 28.4975 55.1193C28.51 55.1193 28.5226 55.1203 28.5351 55.1203C28.7838 55.1203 29.0238 55.0239 29.2031 54.8513C29.3939 54.6691 29.5 54.4185 29.5 54.1563V30.0827C29.5 29.5506 29.0691 29.1188 28.5361 29.1188Z" fill="#4C2770"/>
<path d="M53.6517 35.2724C53.4705 35.0381 53.191 34.9022 52.895 34.9022H32.3917C31.8587 34.9022 31.4278 35.3341 31.4278 35.8661V54.0012C31.4278 54.2768 31.5454 54.539 31.7517 54.7222C31.93 54.8802 32.1575 54.9651 32.3917 54.9651C32.4293 54.9651 32.4679 54.9631 32.5064 54.9583C33.5147 54.8378 34.5268 54.6537 35.5138 54.4108L35.0521 52.5389C34.493 52.6767 33.9253 52.7943 33.3547 52.8898V36.83H51.6285C51.562 37.0498 51.4916 37.2686 51.4183 37.4865L53.2449 38.1024C53.4686 37.4392 53.6662 36.7645 53.8291 36.0975C53.9004 35.8102 53.8349 35.5056 53.6517 35.2724Z" fill="#4C2770"/>
<path d="M22.556 9.46078C22.555 9.45982 22.5541 9.45982 22.5531 9.45982C21.2046 8.44771 19.6074 7.91274 17.9331 7.91274C17.643 7.91274 17.348 7.93491 17.0463 7.9725C16.1065 6.05239 14.4833 4.52845 12.4899 3.72359C13.2842 2.88113 14.2818 2.21699 15.3797 1.80444L14.7021 0C13.3169 0.519548 12.0581 1.36008 11.0594 2.42905C10.8281 2.67678 10.6228 2.92836 10.4319 3.18187C10.0464 3.12982 9.65696 3.09319 9.2579 3.09319C4.47401 3.09319 0.582703 6.98546 0.582703 11.7684C0.582703 16.5513 4.47401 20.4436 9.2579 20.4436C10.0898 20.4436 10.8927 20.3192 11.6551 20.0995C12.7569 21.6417 14.3975 22.7358 16.2597 23.1483C16.2607 23.1483 16.2607 23.1493 16.2617 23.1493C16.8207 23.2727 17.3837 23.3353 17.9331 23.3353C19.7684 23.3353 21.5507 22.6741 22.9493 21.475C22.9502 21.474 22.9502 21.474 22.9512 21.473C24.6622 20.004 25.6444 17.8719 25.6444 15.624C25.6444 13.1815 24.5185 10.9356 22.556 9.46078ZM9.2579 18.5158C5.53817 18.5158 2.51052 15.4891 2.51052 11.7684C2.51052 8.04769 5.53817 5.02101 9.2579 5.02101C9.28392 5.02101 9.30802 5.02487 9.33405 5.02487C8.95716 5.8625 8.74703 6.64809 8.63136 7.28427L10.5274 7.63032C10.6421 7.00185 10.8724 6.19216 11.3245 5.34778C13.2842 5.9801 14.8486 7.48573 15.5696 9.40391C15.638 9.58705 15.6987 9.77116 15.7508 9.95623C15.7575 9.98033 15.7633 10.0044 15.7691 10.0285C15.8144 10.1962 15.8539 10.364 15.8867 10.5336C15.9002 10.6078 15.9098 10.683 15.9214 10.7572C15.9407 10.8825 15.9609 11.0079 15.9735 11.1341C15.9927 11.3423 16.0053 11.5544 16.0053 11.7684C16.0053 12.2648 15.9445 12.7795 15.8241 13.2981C15.1272 16.2833 12.4513 18.5158 9.2579 18.5158ZM15.7556 20.9795C14.8804 20.6229 14.1083 20.0522 13.5001 19.3274C14.9238 18.5254 16.1017 17.3379 16.8834 15.9016L15.7556 20.9795ZM23.6366 14.6601H19.8609L22.1232 11.645C22.9233 12.4807 23.4476 13.5237 23.6366 14.6601ZM20.581 10.4864L19.7385 11.6093L18.0536 13.8552L17.7798 13.3617V13.3608C17.828 13.1024 17.8675 12.8412 17.8916 12.5752C17.9186 12.3053 17.9331 12.0354 17.9331 11.7684C17.9331 11.4493 17.9129 11.1351 17.8791 10.8247C17.8743 10.7794 17.8647 10.7351 17.8589 10.6898C17.8242 10.4112 17.7769 10.1365 17.7162 9.86659C17.7153 9.85984 17.7143 9.85309 17.7124 9.84538C18.7457 9.80008 19.7009 10.0295 20.581 10.4864ZM17.6372 21.3998L18.4555 17.7157L20.9096 20.5785C19.9303 21.1675 18.7977 21.4595 17.6372 21.3998ZM22.3729 19.3225L20.0296 16.5879H23.6356C23.465 17.5933 23.0293 18.537 22.3729 19.3225Z" fill="#A27BB5"/>
<path d="M54.2604 6.023C51.7484 6.023 49.356 6.67653 47.2026 7.80045C47.0147 7.37247 46.7592 6.96281 46.4113 6.61484C45.1013 5.30585 42.6867 5.98251 42.4149 6.06348C42.1055 6.15698 41.8626 6.39892 41.7691 6.70834C41.6881 6.9792 41.0105 9.39379 42.3214 10.7047C42.4727 10.8551 42.6366 10.9842 42.8033 11.1047C42.172 11.7679 41.5994 12.4918 41.0712 13.2523C40.9382 13.0595 40.7974 12.8706 40.6278 12.701C39.3574 11.4315 36.9852 11.8662 36.7182 11.9212C36.3615 11.9935 36.0762 12.2605 35.9789 12.6113C35.8487 13.0865 35.2656 15.5185 36.5379 16.7908C37.177 17.428 37.9799 17.7856 38.7752 17.856C38.2007 19.5997 37.8739 21.4533 37.8739 23.3734H39.8017C39.8017 21.9882 40.008 20.6368 40.3647 19.3385C40.8967 19.6392 41.5281 19.8194 42.2115 19.8194C44.0545 19.8194 45.324 17.6468 45.4628 17.3981C45.6257 17.106 45.6257 16.7494 45.4628 16.4564C45.3413 16.2395 44.3562 14.5526 42.8795 14.1314C43.4713 13.3188 44.1326 12.567 44.8555 11.8855C45.3471 12.9651 46.5655 13.7343 47.995 13.7343C49.838 13.7343 51.1074 11.5616 51.2462 11.3129C51.4091 11.0209 51.4091 10.6642 51.2462 10.3712C51.1633 10.2228 50.6689 9.38801 49.8948 8.7393C51.2858 8.23421 52.7538 7.95082 54.2604 7.95082V6.023ZM39.7998 15.3662C39.7227 15.5175 39.6581 15.6756 39.5849 15.8298C39.5299 15.8443 39.474 15.8568 39.4219 15.8809C39.0576 16.0457 38.4195 15.9445 37.9019 15.4269C37.6426 15.1676 37.6271 14.4071 37.7187 13.7391C38.3115 13.7121 38.9843 13.7834 39.2648 14.0639C39.6282 14.4273 39.8326 14.9074 39.7979 15.317C39.7969 15.3334 39.8008 15.3498 39.7998 15.3662ZM43.4665 16.9277C43.0916 17.4183 42.5826 17.8916 42.2115 17.8916C41.7161 17.8916 41.263 17.7046 40.9999 17.4502C41.1994 16.9711 41.423 16.5046 41.6659 16.0486C41.8394 15.9966 42.0216 15.9638 42.2115 15.9638C42.5836 15.9638 43.0916 16.4371 43.4665 16.9277ZM44.2897 9.73694C44.0844 9.65212 43.8771 9.53452 43.6853 9.34174C43.4251 9.08149 43.4096 8.39518 43.5012 7.79563C44.067 7.71177 44.7755 7.70502 45.0483 7.97781C45.2893 8.21879 45.4512 8.51085 45.5293 8.80002C45.1023 9.09209 44.6897 9.40536 44.2897 9.73694ZM47.995 11.8065C47.2248 11.8065 46.5491 11.3563 46.5472 10.8975C46.5501 10.8801 46.5626 10.8011 46.5645 10.7838C46.5761 10.6874 46.5693 10.5919 46.552 10.4984C46.7621 10.351 46.9761 10.2102 47.192 10.0733C47.4369 9.95479 47.7068 9.87864 47.995 9.87864C48.367 9.87864 48.875 10.3519 49.25 10.8425C48.875 11.3332 48.3661 11.8065 47.995 11.8065Z" fill="#A27BB5"/>
<path d="M22.5483 39.021C22.6832 38.6287 22.7526 38.2152 22.7526 37.7939C22.7526 35.6675 21.0234 33.9383 18.897 33.9383C17.722 33.9383 16.628 34.4848 15.9089 35.3726C15.1011 34.9321 14.1353 34.7914 13.2302 34.9976C12.3781 34.3104 11.3293 33.9383 10.2218 33.9383C7.56431 33.9383 5.40226 36.1003 5.40226 38.7578C3.27587 38.7578 1.54661 40.4871 1.54661 42.6135C1.54661 43.2661 1.70855 43.8916 2.01315 44.4478C1.12731 45.1669 0.582703 46.259 0.582703 47.433C0.582703 49.5594 2.31196 51.2887 4.43834 51.2887C5.83216 51.2887 7.05729 50.5445 7.73396 49.4322L9.29453 52.5533L10.2353 58.1941C10.3124 58.6587 10.7144 59 11.1857 59H18.897C19.43 59 19.8609 58.5681 19.8609 58.0361V52.3326L20.8113 46.6282C20.82 46.5752 20.8248 46.5221 20.8248 46.4691C23.4823 46.4691 25.6444 44.7399 25.6444 42.6135C25.6444 40.9787 24.3672 39.5752 22.5483 39.021ZM20.8248 44.5413C20.5973 44.5413 20.3602 44.5134 20.0566 44.4507C19.7732 44.3919 19.4773 44.4642 19.2527 44.6473C19.0281 44.8305 18.897 45.1042 18.897 45.3944V46.3901L17.9466 52.0945C17.9379 52.1466 17.9331 52.1996 17.9331 52.2526V57.0721H12.0022L11.1732 52.0935C11.1568 51.9991 11.1279 51.9075 11.0845 51.8208L8.19278 46.0373C8.02891 45.7115 7.6954 45.5052 7.33008 45.5052H7.1373C6.8221 45.5052 6.52618 45.6594 6.34689 45.9178C6.16567 46.1771 6.12422 46.5077 6.23315 46.8026C6.32375 47.0494 6.36617 47.2499 6.36617 47.433C6.36617 48.4962 5.50154 49.3609 4.43834 49.3609C3.37515 49.3609 2.51052 48.4962 2.51052 47.433C2.51052 46.6349 3.0185 45.911 3.77517 45.6325C4.08941 45.5158 4.32075 45.2459 4.38726 44.9163C4.4528 44.5876 4.34292 44.2483 4.09712 44.0208C3.69517 43.6487 3.47443 43.1485 3.47443 42.6135C3.47443 41.5503 4.33906 40.6857 5.40226 40.6857C5.59504 40.6857 5.79842 40.7262 6.0394 40.8129C6.33436 40.9189 6.66209 40.8746 6.92042 40.6943C7.17778 40.5141 7.33008 40.2201 7.33008 39.9059V38.7578C7.33008 37.1635 8.6275 35.8661 10.2218 35.8661C11.0074 35.8661 11.7448 36.1803 12.2961 36.751C12.5689 37.0344 12.9882 37.1231 13.3526 36.9736C14.1015 36.6671 14.9421 36.8667 15.4857 37.4527C15.7142 37.6985 16.0544 37.8084 16.3822 37.7419C16.7109 37.6763 16.9817 37.444 17.0974 37.1298C17.376 36.3741 18.0989 35.8661 18.897 35.8661C19.9602 35.8661 20.8248 36.7307 20.8248 37.7939C20.8248 38.2672 20.6436 38.726 20.314 39.0865C20.0604 39.3641 19.992 39.7622 20.1356 40.1083C20.2802 40.4543 20.6128 40.6857 20.9877 40.7001C22.4914 40.7589 23.7166 41.6178 23.7166 42.6135C23.7166 43.6584 22.3921 44.5413 20.8248 44.5413Z" fill="#A27BB5"/>
<path d="M51.9118 38.7579H50.9017C47.5453 38.7579 44.7625 41.2766 44.428 44.6165L44.0116 48.7835L42.0597 49.9547L41.7484 49.6433C41.5681 49.4621 41.3233 49.3609 41.0669 49.3609H40.5849C38.7246 49.3609 37.2112 50.8742 37.2112 52.7346C37.2112 54.4417 38.4855 55.8567 40.1329 56.0784C40.3546 57.7257 41.7696 59 43.4767 59C45.337 59 46.8503 57.4867 46.8503 55.6263V55.1444C46.8503 54.8889 46.7491 54.6431 46.5679 54.4629L46.2566 54.1515L47.4248 52.2044L52.5008 51.7427C55.8735 51.4362 58.4173 48.6505 58.4173 45.2643C58.4173 41.6766 55.4995 38.7579 51.9118 38.7579ZM44.3615 54.9824L44.9225 55.5434V55.6263C44.9225 56.4235 44.2738 57.0722 43.4767 57.0722C42.6795 57.0722 42.0308 56.4235 42.0308 55.6263V55.1444C42.0308 54.6123 41.5999 54.1804 41.0669 54.1804H40.5849C39.7878 54.1804 39.1391 53.5317 39.1391 52.7346C39.1391 51.9374 39.7878 51.2887 40.5849 51.2887H40.6678L41.2288 51.8497C41.5411 52.163 42.026 52.2218 42.4067 51.9943L44.7731 50.5745L45.205 51.0063L45.6368 51.4381L44.2169 53.8045C43.9895 54.1843 44.0492 54.6691 44.3615 54.9824ZM52.3263 49.8226L47.2128 50.2872L45.9269 49.0014L46.3472 44.8074C46.5824 42.4574 48.5401 40.6857 50.9017 40.6857H51.9118C54.4354 40.6857 56.4895 42.7398 56.4895 45.2643C56.4895 47.6471 54.7004 49.6067 52.3263 49.8226Z" fill="#A27BB5"/>
<path d="M13.6755 44.471C12.5236 43.3336 10.8184 42.6135 9.25787 42.6135V44.5413C10.9409 44.5413 13.1135 45.9438 13.1135 47.4331V51.2887H15.0413V47.4331C15.0413 46.2735 15.3228 43.5774 17.9331 43.5774V41.6496C15.9117 41.6496 14.4293 42.6925 13.6755 44.471Z" fill="#A27BB5"/>
</svg>
