<svg width="0" height="0" xmlns="http://www.w3.org/2000/svg">
    <symbol id="ig" viewBox="0 0 22 22">
        <g clip-path="url(#clip0)">
        <path d="M15.7616 0H5.85009C2.6243 0 0 2.6243 0 5.85009V15.7618C0 18.9874 2.6243 21.6117 5.85009 21.6117H15.7618C18.9874 21.6117 21.6117 18.9874 21.6117 15.7618V5.85009C21.6117 2.6243 18.9874 0 15.7616 0V0ZM20.3447 15.7618C20.3447 18.2888 18.2888 20.3447 15.7616 20.3447H5.85009C3.32291 20.3447 1.26697 18.2888 1.26697 15.7618V5.85009C1.26697 3.32291 3.32291 1.26697 5.85009 1.26697H15.7618C18.2888 1.26697 20.3447 3.32291 20.3447 5.85009V15.7618Z"/>
        <path d="M10.8059 4.89673C7.54745 4.89673 4.89661 7.54757 4.89661 10.806C4.89661 14.0645 7.54745 16.7153 10.8059 16.7153C14.0643 16.7153 16.7152 14.0645 16.7152 10.806C16.7152 7.54757 14.0643 4.89673 10.8059 4.89673ZM10.8059 15.4483C8.24623 15.4483 6.16358 13.3658 6.16358 10.806C6.16358 8.24635 8.24623 6.1637 10.8059 6.1637C13.3657 6.1637 15.4482 8.24635 15.4482 10.806C15.4482 13.3658 13.3657 15.4483 10.8059 15.4483Z"/>
        <path d="M16.8565 2.79785C15.8936 2.79785 15.1104 3.58122 15.1104 4.54398C15.1104 5.5069 15.8936 6.29027 16.8565 6.29027C17.8194 6.29027 18.6028 5.5069 18.6028 4.54398C18.6028 3.58105 17.8194 2.79785 16.8565 2.79785ZM16.8565 5.02313C16.5923 5.02313 16.3773 4.80812 16.3773 4.54398C16.3773 4.27967 16.5923 4.06482 16.8565 4.06482C17.1208 4.06482 17.3358 4.27967 17.3358 4.54398C17.3358 4.80812 17.1208 5.02313 16.8565 5.02313Z"/>
        </g>
        <defs>
        <clipPath id="clip0">
        <rect width="21.6117" height="21.6117" fill="white"/>
        </clipPath>
        </defs>
    </symbol>
    <symbol id="fb" viewBox="0 0 11 21">
        <path d="M10.0978 11.604L10.6581 7.8706H7.15453V5.44785C7.15453 4.42646 7.64395 3.43085 9.21309 3.43085H10.8059V0.252227C10.8059 0.252227 9.36047 0 7.9785 0C5.09321 0 3.20724 1.78815 3.20724 5.02519V7.8706H0V11.604H3.20724V20.6294H7.15453V11.604H10.0978Z"/>
    </symbol>
    <symbol id="vk" viewBox="0 0 21 12">
        <path d="M19.7014 11.7377L16.9284 11.7775C16.9284 11.7775 16.3342 11.8968 15.5419 11.3398C14.512 10.6236 13.5216 8.79332 12.7689 9.03206C12.0163 9.27079 12.0163 10.9419 12.0163 10.9419C12.0163 10.9419 12.0163 11.3 11.8578 11.499C11.6597 11.6979 11.3032 11.7377 11.3032 11.7377H10.0752C10.0752 11.7377 7.34181 11.8969 4.96496 9.39016C2.39005 6.64473 0.0528188 1.23345 0.0528188 1.23345C0.0528188 1.23345 -0.0660234 0.875353 0.0528188 0.716198C0.211275 0.517254 0.64703 0.517254 0.64703 0.517254H3.57847C3.57847 0.517254 3.85577 0.557043 4.05384 0.716198C4.2123 0.835565 4.29152 1.0743 4.29152 1.0743C4.29152 1.0743 4.76689 2.26796 5.40072 3.38205C6.62875 5.53064 7.22296 5.96832 7.61911 5.76938C8.21332 5.45107 8.05486 2.74543 8.05486 2.74543C8.05486 2.74543 8.05486 1.75071 7.73795 1.35282C7.50026 1.03451 7.02489 0.915142 6.82682 0.875354C6.66837 0.835565 6.94567 0.477466 7.30219 0.278522C7.81718 1.1858e-07 8.76791 0 9.87711 0C10.7486 0 10.9863 0.0795776 11.3428 0.159155C12.3728 0.397888 12.0163 1.35282 12.0163 3.66057C12.0163 4.37677 11.8974 5.41128 12.4124 5.76938C12.6501 5.92853 13.2047 5.80916 14.5912 3.42184C15.2646 2.30775 15.74 0.99472 15.74 0.99472C15.74 0.99472 15.8588 0.755987 16.0173 0.67641C16.1757 0.557043 16.4134 0.596832 16.4134 0.596832H19.5033C19.5033 0.596832 20.4541 0.477465 20.5729 0.915142C20.7314 1.35282 20.2164 2.38733 18.9487 4.09825C16.8492 6.88346 16.6511 6.60494 18.3545 8.23628C20.0183 9.78804 20.3352 10.544 20.4144 10.6236C21.1671 11.6581 19.7014 11.7377 19.7014 11.7377Z"/>
    </symbol>
    <symbol id="leaf" viewBox="0 0 38 23">
        <path d="M37.3022 2.90295C23.332 3.08439 22.4249 17.5989 22.697 17.5989C37.4837 19.0504 37.3022 2.90295 37.3022 2.90295Z" fill="#94C11F"/>
        <path d="M0.0179679 0C-0.707758 20.7739 20.7919 23.2232 20.7919 22.8604C24.0576 0.99787 0.0179679 0 0.0179679 0Z" fill="#94C11F"/>
    </symbol>
    <symbol id="free-delivery" viewBox="0 0 102 122">
        <path d="M67.876 72.5301V96.2722V113.273C67.876 115.678 66.8966 117.86 65.3159 119.44C63.7356 121.021 61.5539 122 59.1491 122H8.72683C6.32233 122 4.14038 121.021 2.55986 119.44C0.979338 117.86 0 115.678 0 113.273V96.272V67.0587C0 66.0724 0.803724 65.2687 1.78997 65.2687C2.77622 65.2687 3.57303 66.0724 3.57303 67.0587V94.4887H64.3029V72.5296H56.9L45.6266 83.8029C44.924 84.5054 43.7959 84.5054 43.1004 83.8029C42.7492 83.4584 42.5735 82.999 42.5735 82.5398V72.5296H42.0467C40.5336 72.5296 39.1559 71.9148 38.163 70.9152C37.1634 69.9223 36.5486 68.5446 36.5486 67.0315V28.727C36.5486 27.2072 37.1634 25.8362 38.163 24.8363C39.1556 23.8367 40.5336 23.222 42.0467 23.222H64.3029V18.2643H3.57303V58.9604C3.57303 59.9533 2.77598 60.7504 1.78997 60.7504C0.803724 60.7504 0 59.9533 0 58.9604V8.72707C0 6.32233 0.979338 4.14062 2.55986 2.5601C4.14038 0.979338 6.32209 0 8.72683 0H59.1494C61.5539 0 63.7356 0.979338 65.3161 2.5601C66.8966 4.14062 67.8762 6.32233 67.8762 8.72707V23.2222H95.9138C97.4269 23.2222 98.8049 23.8367 99.7978 24.8366C100.797 25.8364 101.419 27.2075 101.419 28.7272V67.0322C101.419 68.5453 100.797 69.923 99.7978 70.916C98.8049 71.9156 97.4269 72.5303 95.9138 72.5303L67.876 72.5301ZM44.3635 87.6197C45.3498 87.6197 46.1468 88.4235 46.1468 89.4097C46.1468 90.396 45.3498 91.1928 44.3635 91.1928H16.4066C14.0898 91.1928 11.9825 90.2473 10.4558 88.7206C8.92937 87.1942 7.98363 85.0866 7.98363 82.7698C7.98363 80.4463 8.92937 78.3389 10.4558 76.8125C11.9822 75.2858 14.0896 74.3403 16.4066 74.3403H24.3431C25.6739 74.3403 26.8829 73.7932 27.7677 72.9149C28.6457 72.0302 29.1928 70.8211 29.1928 69.4903C29.1928 68.1531 28.6457 66.944 27.7677 66.0591C26.8829 65.181 25.6739 64.6339 24.3431 64.6339H20.0002C19.0139 64.6339 18.2169 63.8369 18.2169 62.8439C18.2169 61.8579 19.0139 61.0609 20.0002 61.0609H24.3431C26.6599 61.0609 28.7673 62.0066 30.2939 63.533C31.8204 65.0595 32.7661 67.1671 32.7661 69.4906C32.7661 71.8074 31.8204 73.9147 30.2939 75.4412C28.7675 76.9678 26.6599 77.9133 24.3431 77.9133H16.4066C15.0758 77.9133 13.8601 78.4604 12.9821 79.3385C12.104 80.2232 11.5569 81.4325 11.5569 82.7698C11.5569 84.1006 12.104 85.3163 12.9821 86.1943C13.8601 87.0726 15.0761 87.6195 16.4066 87.6195L44.3635 87.6197ZM20.0002 30.2737C21.6617 30.2737 23.1612 30.9492 24.2487 32.0365C25.3362 33.124 26.0118 34.6235 26.0118 36.2853C26.0118 37.9468 25.3362 39.4463 24.2487 40.5339C23.1612 41.6211 21.6617 42.29 20.0002 42.29C18.3453 42.29 16.8391 41.6211 15.7516 40.5339C14.6641 39.4463 13.9952 37.9468 13.9952 36.2853C13.9952 34.6235 14.6639 33.124 15.7516 32.0365C16.8389 30.9492 18.3453 30.2737 20.0002 30.2737ZM21.7225 34.5628C21.2836 34.1238 20.6755 33.8536 20.0002 33.8536C19.3313 33.8536 18.7235 34.1238 18.2845 34.5628C17.8387 35.0019 17.5685 35.6098 17.5685 36.2853C17.5685 36.9539 17.8387 37.5687 18.2845 38.0078C18.7235 38.4467 19.3316 38.717 20.0002 38.717C20.6755 38.717 21.2836 38.4467 21.7225 38.0078C22.1616 37.5687 22.4385 36.9542 22.4385 36.2853C22.4385 35.6098 22.1614 35.0019 21.7225 34.5628ZM20.0002 23.222C23.607 23.222 26.8763 24.681 29.2403 27.0452C31.6042 29.4092 33.0632 32.6784 33.0632 36.2853C33.0632 43.1073 25.6265 51.7734 21.3643 56.8056C20.6416 57.6634 19.3244 57.6432 18.6222 56.7851C14.3667 51.7531 6.93686 43.1004 6.93686 36.2853C6.93686 32.6784 8.40253 29.4092 10.7665 27.0452C13.1307 24.681 16.3931 23.222 20.0002 23.222ZM26.714 29.5781C24.9981 27.8556 22.6206 26.7952 19.9999 26.7952C17.3791 26.7952 15.0082 27.8556 13.2925 29.5781C11.5769 31.2938 10.5166 33.6644 10.5166 36.2853C10.5166 41.2363 16.1162 48.2678 19.9999 52.8947C23.8904 48.268 29.49 41.2363 29.49 36.2853C29.4902 33.6644 28.4296 31.2938 26.714 29.5781ZM67.194 34.7519V32.7594C67.194 31.7732 67.991 30.9695 68.984 30.9695C69.9702 30.9695 70.767 31.7732 70.767 32.7594V34.7519C75.5288 35.1775 79.8112 37.2849 82.9995 40.4798C86.1943 43.6746 88.3019 47.9504 88.7273 52.7122H89.6797C90.6726 52.7122 91.4697 53.5159 91.4697 54.5022C91.4697 55.4884 90.6726 56.2855 89.6797 56.2855H88.6396C88.2748 58.1631 87.3493 59.8382 86.0526 61.1419C84.3505 62.8439 81.9999 63.8976 79.4131 63.8976H58.5551C55.9681 63.8976 53.6174 62.8439 51.9154 61.1419C50.6117 59.8382 49.6865 58.1631 49.3217 56.2855H48.2816C47.2953 56.2855 46.4916 55.4882 46.4916 54.5022C46.4916 53.5162 47.2953 52.7122 48.2816 52.7122H49.234C49.3894 51.0168 49.7608 49.3755 50.3148 47.8084C51.0983 45.64 52.2399 43.6475 53.6718 41.9049C54.2999 41.1484 55.421 41.0404 56.1778 41.6619C56.941 42.29 57.0492 43.4111 56.4208 44.1677C55.2454 45.5997 54.3065 47.2343 53.6718 49.0107C53.2462 50.1793 52.9624 51.4221 52.8206 52.7122H85.1409C84.7289 48.9364 83.0199 45.5525 80.4737 43.006C77.5354 40.0678 73.4691 38.2442 68.9842 38.2442C67.7752 38.2442 66.6 38.3726 65.4786 38.6224C64.3167 38.8792 63.2092 39.2574 62.1622 39.7368C61.2639 40.1488 60.2033 39.7571 59.7913 38.8654C59.3793 37.974 59.771 36.9134 60.6694 36.5014C61.9528 35.9069 63.3102 35.4408 64.7221 35.1301C65.5322 34.9547 66.3562 34.8263 67.194 34.7519ZM83.5263 58.6159C84.168 57.9675 84.6677 57.1704 84.9515 56.2857H53.0093C53.2998 57.1704 53.7928 57.9675 54.4414 58.6159C55.4951 59.6695 56.9541 60.3248 58.5549 60.3248H79.4128C81.0067 60.3246 82.4657 59.6693 83.5263 58.6159ZM95.9138 26.7952H42.0467C41.5199 26.7952 41.0402 27.0114 40.6892 27.3626C40.338 27.7138 40.1219 28.1935 40.1219 28.727V67.032C40.1219 67.5588 40.338 68.0385 40.6892 68.3895C41.0404 68.7407 41.5199 68.9568 42.0467 68.9568H44.3635C45.3498 68.9568 46.1468 69.7605 46.1468 70.7468V78.2241L54.887 69.4906C55.2113 69.1596 55.6571 68.957 56.157 68.957H95.9138C96.4407 68.957 96.9203 68.7409 97.2716 68.3897C97.6228 68.0385 97.8389 67.5591 97.8389 67.0322V28.727C97.8389 28.1935 97.6228 27.7138 97.2716 27.3626C96.9203 27.0114 96.4407 26.7952 95.9138 26.7952ZM28.504 10.9221C27.5177 10.9221 26.714 10.1184 26.714 9.13215C26.714 8.1459 27.5177 7.34217 28.504 7.34217H39.372C40.3582 7.34217 41.162 8.1459 41.162 9.13215C41.162 10.1184 40.3582 10.9221 39.372 10.9221H28.504ZM33.9413 101.426C35.819 101.426 37.5282 102.189 38.7572 103.425C39.9934 104.661 40.7566 106.363 40.7566 108.248C40.7566 110.126 39.9934 111.835 38.7572 113.064C37.5279 114.3 35.819 115.063 33.9413 115.063C32.0567 115.063 30.3547 114.3 29.1187 113.064C27.8825 111.835 27.1193 110.126 27.1193 108.248C27.1193 106.363 27.8825 104.661 29.1187 103.425C30.3549 102.189 32.0567 101.426 33.9413 101.426ZM36.2312 105.951C35.6436 105.364 34.833 104.999 33.9413 104.999C33.043 104.999 32.2326 105.364 31.6448 105.951C31.0572 106.539 30.6923 107.349 30.6923 108.248C30.6923 109.139 31.0572 109.95 31.6448 110.538C32.2324 111.125 33.043 111.49 33.9413 111.49C34.833 111.49 35.6436 111.125 36.2312 110.538C36.8188 109.95 37.1836 109.139 37.1836 108.248C37.1836 107.35 36.8188 106.539 36.2312 105.951ZM3.57303 14.691H64.3029V8.72683C64.3029 7.31501 63.722 6.02495 62.7898 5.09279C61.851 4.15396 60.5676 3.57303 59.1491 3.57303H8.72683C7.31525 3.57303 6.02519 4.15396 5.09279 5.09279C4.15396 6.02495 3.57303 7.31501 3.57303 8.72683V14.691ZM3.57303 98.0622V113.273C3.57303 114.692 4.15396 115.982 5.09279 116.914C6.02519 117.846 7.31525 118.427 8.72683 118.427H59.1494C60.5679 118.427 61.851 117.846 62.7901 116.914C63.7222 115.982 64.3032 114.692 64.3032 113.273V98.0622H3.57303Z"/>
    </symbol>
</svg>