<svg width="29" height="29" viewBox="0 0 29 29" fill="none" xmlns="http://www.w3.org/2000/svg">
<path d="M24.7531 4.24691C22.0143 1.50828 18.3731 0 14.5 0C10.6269 0 6.98566 1.50828 4.24691 4.24691C1.50828 6.98566 0 10.6269 0 14.5C0 18.3731 1.50828 22.0143 4.24691 24.7531C6.98566 27.4917 10.6269 29 14.5 29C18.3731 29 22.0143 27.4917 24.7531 24.7531C27.4917 22.0143 29 18.3731 29 14.5C29 10.6269 27.4917 6.98566 24.7531 4.24691ZM5.44849 5.44849C7.86625 3.03073 11.0808 1.69922 14.5 1.69922C17.9192 1.69922 21.1337 3.03073 23.5515 5.44849C23.5662 5.46321 23.581 5.478 23.5956 5.49284L19.897 8.25701V7.33394C19.897 6.86473 19.5166 6.48433 19.0474 6.48433C18.5782 6.48433 18.1978 6.86473 18.1978 7.33394V9.5269L15.7518 11.3549L15.3496 11.6555V5.07013C15.3496 4.60092 14.9692 4.22052 14.5 4.22052C14.0308 4.22052 13.6504 4.60092 13.6504 5.07013V11.6555L10.8023 9.52695V7.334C10.8023 6.86479 10.4219 6.48439 9.95266 6.48439C9.48345 6.48439 9.10306 6.86479 9.10306 7.334V16.3238L3.28051 20.6752C2.24795 18.8057 1.69922 16.695 1.69922 14.5C1.69922 11.0808 3.03073 7.86625 5.44849 5.44849ZM13.6504 17.5055L12.0054 16.2761L13.6504 15.0467V17.5055ZM15.3496 13.7768L18.1977 11.6483V15.377L15.3496 17.5055V13.7768ZM10.8023 15.0539V11.6483L13.0808 13.351L10.8023 15.0539ZM10.8023 17.4984L13.6504 19.6269V23.129L10.8023 21.0005V17.4984ZM15.3496 19.6269L18.1977 17.4983V21.0005L15.3496 23.1291V19.6269ZM4.20211 22.1079L9.10306 18.4451V21.4262C9.10306 21.6942 9.22942 21.9464 9.44409 22.1068L13.6504 25.2504V27.2732C10.5509 27.0714 7.66489 25.7679 5.44849 23.5515C4.99412 23.0971 4.57809 22.6146 4.20211 22.1079ZM23.5515 23.5515C21.3351 25.768 18.4491 27.0715 15.3496 27.2733V25.2504L19.556 22.1068C19.7706 21.9464 19.897 21.6942 19.897 21.4262V10.3784L24.7131 6.77909C26.3921 8.99051 27.3008 11.6754 27.3008 14.5C27.3008 17.9192 25.9693 21.1337 23.5515 23.5515Z" fill="#A27BB5"/>
</svg>
