<svg width="29" height="29" viewBox="0 0 29 29" fill="none" xmlns="http://www.w3.org/2000/svg">
<circle cx="14.5" cy="14.5" r="13.75" stroke="#A27BB5" stroke-width="1.5"/>
<g clip-path="url(#clip0)">
<path d="M19.8057 10.9501C19.4686 10.7014 19.1512 10.4764 18.8505 10.2633C17.659 9.42023 16.7955 8.80682 16.0112 7.63678C15.8144 7.02505 15.6263 6.3465 15.4078 5.55563L14.9752 4L13.7919 4.5658L13.8456 4.82642C13.8489 4.84305 13.9356 5.27701 14.0186 5.97205C13.8059 6.43896 13.6257 6.8566 13.4639 7.23303C13.2036 7.83942 12.9899 8.33578 12.7472 8.77997C12.2457 9.10483 11.6874 9.39139 11.0961 9.69305C10.3502 10.0739 9.57921 10.4679 8.93102 10.947C6.4008 12.6923 4.8528 15.2019 4.98433 17.3441C4.97914 17.6163 4.99593 19.4469 6.2441 20.7917C7.11095 21.7255 8.35332 22.1989 9.93688 22.1989C10.2074 22.1989 10.4813 22.1625 10.7688 22.096C11.0624 22.1622 11.3712 22.1996 11.6988 22.1996C11.7104 22.1996 11.7223 22.1992 11.7339 22.1992C11.7247 22.2407 11.722 22.2838 11.7295 22.3284C11.7574 22.4946 11.9011 22.6122 12.0643 22.6122C12.0829 22.6122 12.1016 22.6108 12.1206 22.6073L13.2778 22.414L12.7231 22.9697C12.5902 23.1026 12.5905 23.3176 12.7234 23.4502C12.7898 23.5164 12.8768 23.5494 12.9638 23.5494C13.0507 23.5494 13.138 23.516 13.2044 23.4498L13.9721 22.6807V23.6602C13.9721 23.8477 14.1242 24 14.3119 24C14.4994 24 14.6517 23.8477 14.6517 23.6602V22.6807L15.4194 23.4498C15.4856 23.5164 15.5726 23.5494 15.66 23.5494C15.747 23.5494 15.8336 23.5164 15.9002 23.4502C16.0331 23.3176 16.0334 23.1025 15.9006 22.9697L15.3446 22.4128L16.4922 22.6427C16.5146 22.6472 16.5371 22.6496 16.559 22.6496C16.7177 22.6496 16.8595 22.5381 16.8918 22.3763C16.9019 22.325 16.8979 22.2751 16.8856 22.2275C17.1744 22.2112 17.4619 22.1477 17.7424 22.0389C18.0921 22.1375 18.4438 22.1929 18.7908 22.1987C18.8175 22.199 18.844 22.1993 18.8706 22.1993C19.972 22.1993 20.8854 21.8227 21.5865 21.0799C22.8414 19.7498 22.9693 17.6935 22.9807 17.3571H22.9818C23.0594 16.144 22.9073 13.0923 19.8057 10.9501ZM15.3815 7.89709V7.89771C15.3829 7.90213 15.3843 7.90625 15.3859 7.91068C15.4155 8.00177 15.4458 8.09256 15.476 8.18121C15.4793 8.19098 15.4831 8.2009 15.4865 8.21066C15.5344 8.34937 15.5837 8.48563 15.6341 8.61914C15.6571 8.68063 15.6806 8.74182 15.7047 8.8027C15.7248 8.85336 15.7451 8.90433 15.7656 8.95453C15.7982 9.03433 15.8321 9.11398 15.8667 9.19272C15.8895 9.24445 15.9127 9.29648 15.9362 9.34744C15.9714 9.42496 16.0079 9.50201 16.0456 9.57922C16.0697 9.62805 16.0941 9.67703 16.1193 9.72571C16.1489 9.78308 16.1791 9.84091 16.2101 9.89798C16.2375 9.94894 16.2644 9.99991 16.2929 10.0506C16.3431 10.14 16.3955 10.2292 16.4499 10.3184C16.4849 10.376 16.5223 10.4339 16.5593 10.4912C16.5882 10.5361 16.617 10.5813 16.6474 10.6264C16.6861 10.685 16.7258 10.7433 16.7667 10.8015C16.8003 10.8497 16.836 10.8983 16.8709 10.9469C16.9288 11.0265 16.9883 11.106 17.0498 11.1858C17.1027 11.2545 17.1561 11.3232 17.2124 11.3924C17.2489 11.4373 17.2872 11.4825 17.325 11.5276C17.3827 11.5966 17.4422 11.666 17.5031 11.7356C17.537 11.7744 17.5707 11.8128 17.6053 11.8514C17.7031 11.9605 17.8042 12.0704 17.9111 12.1818C18.064 12.3313 18.2061 12.483 18.34 12.6359C18.3635 12.6627 18.3838 12.6896 18.4066 12.7164C18.5192 12.8486 18.6272 12.981 18.7261 13.115C18.738 13.131 18.7488 13.1469 18.7604 13.1632C20.152 15.0782 20.2118 17.1525 19.7214 18.6959C19.717 18.7099 19.7126 18.7241 19.7078 18.738C19.6708 18.8521 19.6303 18.9631 19.5876 19.0706C19.5801 19.0894 19.5722 19.108 19.5647 19.1263C19.5267 19.2196 19.486 19.3096 19.4442 19.3976C19.4187 19.4506 19.3924 19.5029 19.3656 19.555C19.3506 19.5835 19.3361 19.6123 19.3207 19.6406C19.2899 19.6972 19.2583 19.753 19.2257 19.8081C19.2124 19.8308 19.1991 19.8533 19.1855 19.8757C19.1474 19.9375 19.1086 19.9984 19.0687 20.0574C19.0607 20.069 19.0529 20.0809 19.0448 20.0925C18.6414 20.678 18.1371 21.128 17.582 21.3682C17.5748 21.3712 17.5693 21.377 17.5626 21.3804C17.2074 21.529 16.8412 21.5871 16.4815 21.5371C16.4493 21.5327 16.4184 21.531 16.3895 21.531C16.3447 21.531 16.3045 21.5351 16.2719 21.5381C16.2552 21.5398 16.2383 21.5421 16.2217 21.5421H15.107C14.6174 21.5421 14.132 21.382 13.6957 21.1042C13.6185 21.0549 13.5448 21.0009 13.472 20.9455C13.4408 20.9214 13.4092 20.8976 13.3786 20.8724C13.3188 20.8231 13.261 20.7714 13.2044 20.7181C13.1574 20.6736 13.1119 20.627 13.0674 20.5794C13.0269 20.5366 12.9859 20.4938 12.9477 20.4485C12.8751 20.3626 12.8058 20.2729 12.7405 20.1787C12.7303 20.1646 12.7192 20.1513 12.7092 20.1366C12.6317 20.0214 12.5606 19.8998 12.4955 19.7738C12.4473 19.6799 12.4013 19.5847 12.3609 19.4861C12.3592 19.4819 12.3578 19.4773 12.3562 19.473C12.3137 19.3683 12.2764 19.2615 12.2434 19.1526C12.24 19.141 12.2365 19.1294 12.2332 19.1178C12.2008 19.0067 12.1724 18.8936 12.1503 18.7784C12.1503 18.778 12.1503 18.7777 12.1499 18.7774C12.1232 18.6378 12.1027 18.483 12.0919 18.3172C12.0905 18.2947 12.0891 18.2723 12.0881 18.25C12.0853 18.196 12.0836 18.1412 12.0836 18.0848C12.0836 18.0227 12.0844 17.9601 12.0874 17.8976C12.0888 17.8683 12.0911 17.8383 12.0932 17.8086C12.0975 17.7442 12.1033 17.6797 12.1113 17.6151C12.1132 17.5989 12.1149 17.5826 12.1169 17.566C12.2033 16.9155 12.4523 16.2572 12.8602 15.6241C12.8615 15.6225 12.8621 15.6205 12.8635 15.6188C12.9223 15.5273 12.9848 15.4366 13.0501 15.3466C13.1676 15.1848 13.2761 15.017 13.3797 14.8467C13.3957 14.8205 13.4121 14.795 13.4276 14.7686C13.526 14.602 13.6179 14.4321 13.7041 14.2591C13.7171 14.233 13.7301 14.2065 13.7429 14.1802C13.8312 13.9985 13.9138 13.8143 13.9896 13.6266C13.9899 13.6257 13.9902 13.6246 13.991 13.6236C15.1566 10.7365 14.8871 7.25424 14.6636 5.61713L14.6232 5.27014L14.7522 5.7363C14.9764 6.54807 15.1722 7.25317 15.3815 7.89709ZM6.77037 20.3591C5.60857 19.1378 5.66258 17.3742 5.66319 17.3606C5.66426 17.3449 5.66457 17.329 5.66365 17.3133C5.54204 15.4314 7.01009 13.0977 9.32622 11.4998C9.93825 11.0476 10.6843 10.6667 11.4055 10.2984C11.5041 10.248 11.603 10.1974 11.7022 10.1464C11.4338 10.4101 11.1219 10.6701 10.747 10.947C7.64104 13.0897 7.48845 16.1437 7.56688 17.3571H7.56795C7.58046 17.7331 7.74266 20.2497 9.43089 21.5003C8.30342 21.4139 7.41002 21.0312 6.77037 20.3591ZM10.6489 21.3575C10.6037 21.343 10.5573 21.3294 10.5138 21.3126C10.4332 21.2818 10.3551 21.2475 10.2787 21.2096C10.2614 21.2012 10.2448 21.1919 10.2277 21.1832C9.97868 21.0534 9.75026 20.8878 9.54503 20.6837C8.32036 19.4657 8.26589 17.3676 8.26528 17.3611L8.26695 17.3374L8.26558 17.3136C8.19447 16.2157 8.33348 13.4519 11.1622 11.5002C12.9337 10.1909 13.3439 9.2356 14.0883 7.50113C14.1051 7.46176 14.1224 7.42194 14.1398 7.38181C14.2325 9.11963 14.1445 11.4519 13.3336 13.4296C13.3252 13.4504 13.317 13.4714 13.3082 13.4922C13.267 13.5905 13.2229 13.6872 13.178 13.7833C13.1528 13.8372 13.127 13.8907 13.1005 13.9438C13.0628 14.0198 13.0245 14.0957 12.9839 14.1704C12.9421 14.2477 12.8983 14.3238 12.8537 14.3992C12.8219 14.4535 12.7909 14.5086 12.7576 14.5623C12.6757 14.6931 12.5907 14.8221 12.4997 14.9473C12.4239 15.0516 12.3536 15.1549 12.287 15.2575C12.2812 15.2663 12.276 15.2755 12.2707 15.2843C12.2081 15.3818 12.1497 15.4787 12.0954 15.5746C12.0922 15.5799 12.0896 15.5857 12.0865 15.5912C12.029 15.6934 11.9761 15.7947 11.9271 15.895C11.9251 15.8994 11.923 15.9038 11.921 15.908C11.8706 16.0116 11.8248 16.1138 11.783 16.2151C11.7806 16.2209 11.7783 16.227 11.7759 16.2328C11.7344 16.3344 11.6967 16.435 11.6631 16.534C11.6604 16.5424 11.6573 16.5507 11.6546 16.5591C11.621 16.6604 11.5903 16.7603 11.5642 16.8584C11.5621 16.8659 11.5598 16.8735 11.5577 16.8813C11.5305 16.9855 11.5064 17.0882 11.487 17.1888C11.4806 17.222 11.4762 17.2558 11.4704 17.289C11.4605 17.3461 11.451 17.4029 11.4435 17.4586C11.4351 17.5201 11.4286 17.5812 11.4228 17.6427C11.4211 17.6615 11.4194 17.6801 11.418 17.6984C11.3735 18.2273 11.4217 18.7508 11.5648 19.2573C11.5651 19.2583 11.5654 19.2592 11.5659 19.2603C11.5947 19.3625 11.6277 19.4642 11.6643 19.5652C11.6742 19.5923 11.6845 19.6192 11.695 19.6461C11.7225 19.7173 11.7521 19.7884 11.7836 19.8588C11.8036 19.9036 11.8241 19.9477 11.8454 19.9917C11.8567 20.0147 11.8662 20.0385 11.8778 20.0612C11.8975 20.1003 11.9196 20.1374 11.9407 20.1754C11.9584 20.208 11.9756 20.241 11.9944 20.2729C12.0464 20.3623 12.1004 20.4496 12.1578 20.5337C12.1694 20.5503 12.1819 20.5662 12.1938 20.5829C12.2445 20.655 12.2968 20.725 12.3511 20.7929C12.3702 20.8164 12.3896 20.8394 12.409 20.8626C12.465 20.9298 12.5228 20.9948 12.5826 21.058C12.5948 21.0709 12.6067 21.0842 12.6192 21.0967C12.6967 21.1762 12.7759 21.2534 12.8582 21.3254C12.5123 21.4471 12.1473 21.5117 11.7676 21.5177C11.3611 21.5253 10.989 21.469 10.6489 21.3575ZM22.3024 17.3469C22.3024 17.3673 22.2474 19.4668 21.023 20.684C20.4506 21.2528 19.7103 21.5308 18.8009 21.5194C18.7505 21.5186 18.6998 21.5162 18.6489 21.5131C19.1897 21.0871 19.6694 20.4868 20.0327 19.7462C20.0538 19.7033 20.0721 19.6564 20.0925 19.6122C20.0976 19.601 20.1024 19.5898 20.1075 19.5786C20.1642 19.4535 20.2173 19.3241 20.2672 19.1901C20.2855 19.1419 20.3029 19.0932 20.3202 19.0439C20.3495 18.9586 20.3766 18.8714 20.403 18.783C20.4299 18.6947 20.4558 18.6066 20.4789 18.5166C20.4871 18.4839 20.4938 18.4499 20.5016 18.417C20.5279 18.308 20.5561 18.1998 20.5767 18.0887C20.737 17.2225 20.7215 16.3505 20.5427 15.5047C20.526 15.4232 20.5036 15.3412 20.4836 15.2593C20.4673 15.1945 20.452 15.1296 20.4337 15.0654C20.4027 14.9532 20.3673 14.8408 20.3299 14.7283C20.3228 14.7068 20.3154 14.6857 20.308 14.6647C20.176 14.2814 20.0048 13.8975 19.791 13.5161C19.7884 13.5117 19.786 13.507 19.7835 13.5026C19.7146 13.3799 19.6416 13.2578 19.5633 13.1359C19.5502 13.1151 19.5356 13.095 19.5223 13.0744C19.4138 12.9093 19.2972 12.7454 19.1712 12.5823C19.1008 12.4909 19.0291 12.4001 18.9544 12.3109C18.9075 12.2553 18.8599 12.1999 18.8109 12.145C18.6782 11.9947 18.5408 11.847 18.3947 11.7039C18.2917 11.5969 18.1949 11.4915 18.1008 11.3868C18.0665 11.3488 18.0343 11.3111 18.0008 11.2729C17.9435 11.2078 17.8873 11.1425 17.8333 11.0779C17.7956 11.0328 17.7588 10.9882 17.7225 10.9434C17.6755 10.8857 17.6304 10.8279 17.586 10.7705C17.5509 10.7249 17.5152 10.6794 17.4816 10.6342C17.4329 10.5692 17.3871 10.5044 17.3415 10.4395C17.3012 10.382 17.2611 10.3243 17.2226 10.2668C17.1747 10.1951 17.1274 10.1238 17.0827 10.0521C17.0551 10.0081 17.0293 9.96436 17.0031 9.92056C16.9681 9.86212 16.9335 9.80368 16.9001 9.74493C16.8746 9.70038 16.8499 9.65552 16.8253 9.61066C16.8148 9.59158 16.8053 9.5722 16.7951 9.55313C17.2977 9.99731 17.8455 10.385 18.4578 10.8187C18.7566 11.03 19.0719 11.253 19.4063 11.5005C19.4094 11.5024 19.4124 11.5047 19.4152 11.5069C22.2348 13.4511 22.3737 16.215 22.3024 17.3469Z" fill="#A27BB5" stroke="#A27BB5" stroke-width="0.4"/>
</g>
<defs>
<clipPath id="clip0">
<rect width="20" height="20" fill="white" transform="translate(4 4)"/>
</clipPath>
</defs>
</svg>
