<svg width="29" height="29" viewBox="0 0 29 29" fill="none" xmlns="http://www.w3.org/2000/svg">
<path d="M9.99719 23.0271C9.15215 23.0272 8.31703 22.845 7.54883 22.4929C6.78063 22.1408 6.09742 21.6272 5.54584 20.987C5.51437 20.9505 5.49445 20.9055 5.48861 20.8576C5.48277 20.8098 5.49127 20.7613 5.51303 20.7183C5.53478 20.6753 5.56883 20.6397 5.61083 20.6161C5.65283 20.5925 5.70091 20.5819 5.74895 20.5856L7.53995 20.7257C9.04355 20.8436 10.5353 20.3821 11.7096 19.4357C12.884 18.4893 13.6519 17.1297 13.8562 15.6354C13.9244 15.1207 13.9947 14.6016 14.064 14.0915L14.1975 13.1042C14.273 12.549 14.4714 12.0176 14.7783 11.5488C15.0851 11.0799 15.4927 10.6854 15.9713 10.394C16.4498 10.1026 16.9874 9.92158 17.5448 9.86418C18.1022 9.80678 18.6653 9.87443 19.1932 10.0622C19.7192 10.2504 20.1969 10.5531 20.5917 10.9483C20.9865 11.3436 21.2885 11.8216 21.4761 12.3479C21.6636 12.8741 21.732 13.4354 21.6762 13.9913C21.6204 14.5471 21.4419 15.0837 21.1535 15.5622L19.9412 17.5665C18.9292 19.2238 17.5107 20.5953 15.8202 21.5509C14.1297 22.5065 12.2232 23.0146 10.2813 23.0271H9.99719ZM6.35195 21.1208C7.34637 22.0343 8.6476 22.541 9.99792 22.5406H10.2806C12.1387 22.5284 13.9629 22.0421 15.5805 21.1276C17.1981 20.2131 18.5554 18.9008 19.5238 17.315L20.7361 15.3106C20.9889 14.8937 21.1456 14.4256 21.1948 13.9405C21.244 13.4554 21.1844 12.9654 21.0204 12.5062C20.8564 12.047 20.5921 11.6301 20.2468 11.2859C19.9014 10.9417 19.4837 10.6788 19.0239 10.5163C18.5642 10.3538 18.074 10.2958 17.589 10.3466C17.1041 10.3974 16.6365 10.5556 16.2204 10.8098C15.8043 11.064 15.4501 11.4077 15.1835 11.816C14.9169 12.2243 14.7447 12.6869 14.6794 13.1701L14.5461 14.1572C14.477 14.668 14.4067 15.1851 14.3384 15.7001C14.1175 17.3177 13.2864 18.7896 12.0153 19.8142C10.7442 20.8387 9.12938 21.3384 7.50176 21.2108L6.35195 21.1208Z" fill="#A27BB5" stroke="#A27BB5" stroke-width="0.4"/>
<path d="M16.175 13.6115L15.6946 13.5344C15.7946 12.8985 16.1186 12.3193 16.608 11.9011C17.0975 11.483 17.7202 11.2535 18.3639 11.254L18.3654 11.7405C17.8372 11.7402 17.3263 11.9286 16.9247 12.2716C16.5231 12.6146 16.2572 13.0898 16.175 13.6115Z" fill="#A27BB5" stroke="#A27BB5" stroke-width="0.4"/>
<path d="M17.0374 10.1546V10.1483H17.5238L17.0374 10.1546Z" fill="black"/>
<path d="M21.2329 12.1815L20.8889 11.8375L21.236 12.1783L21.2329 12.1815Z" fill="black"/>
<path d="M21.0639 12.2496C21.0189 12.2496 20.9747 12.2371 20.9364 12.2135C20.898 12.1899 20.867 12.1561 20.8467 12.1158C20.5252 11.4861 20.0083 10.9774 19.3736 10.6658C18.7388 10.3542 18.0202 10.2565 17.3253 10.3874C17.288 10.3944 17.2496 10.3926 17.2131 10.3821C17.1766 10.3716 17.1431 10.3527 17.1152 10.3269C17.0874 10.3011 17.0659 10.2692 17.0526 10.2337C17.0393 10.1981 17.0344 10.16 17.0385 10.1222C17.0539 9.98418 17.0917 9.84958 17.1506 9.72379C17.4822 8.98823 18.3946 8.62385 19.3994 8.80896C19.8654 8.18685 20.4064 7.62468 21.0102 7.1352C21.1503 7.03128 21.3166 6.96831 21.4904 6.95332C21.6642 6.93832 21.8388 6.97189 21.9946 7.05027C22.1505 7.12866 22.2815 7.24878 22.3731 7.39726C22.4647 7.54574 22.5133 7.71674 22.5134 7.8912C22.5133 8.03423 22.4803 8.17532 22.417 8.3036C22.3538 8.43188 22.2619 8.54394 22.1486 8.63114C21.7414 8.93627 21.3798 9.29797 21.0749 9.70531C21.6587 10.3171 21.8533 11.0896 21.5684 11.7198C21.4863 11.8956 21.3706 12.0537 21.2279 12.1852C21.1832 12.2264 21.1247 12.2494 21.0639 12.2496ZM17.9293 9.84323C18.5601 9.84328 19.1808 10.0018 19.7344 10.3042C20.288 10.6066 20.7568 11.0432 21.0978 11.5739C21.108 11.5551 21.1177 11.5359 21.1269 11.5163C21.3446 11.0349 21.1379 10.4073 20.5993 9.92082C20.5575 9.88307 20.5301 9.83197 20.5218 9.77625C20.5134 9.72053 20.5247 9.66365 20.5536 9.61531C20.9001 9.08549 21.339 8.62229 21.8494 8.24779C21.9027 8.20726 21.9463 8.15536 21.977 8.09585C22.0077 8.03635 22.0247 7.97074 22.0268 7.90382C22.029 7.8369 22.0162 7.77034 21.9893 7.70899C21.9625 7.64765 21.9223 7.59306 21.8718 7.5492C21.793 7.48132 21.6936 7.44212 21.5897 7.43796C21.4858 7.43381 21.3836 7.46496 21.2996 7.52633C20.6985 8.0242 20.1605 8.59372 19.6976 9.22223C19.6694 9.26097 19.6303 9.29048 19.5852 9.30706C19.5402 9.32363 19.4913 9.32653 19.4447 9.31539C18.642 9.12323 17.9101 9.34531 17.6284 9.85612C17.7289 9.84752 17.8292 9.84323 17.9293 9.84323Z" fill="#A27BB5" stroke="#A27BB5" stroke-width="0.4"/>
<circle cx="14.5" cy="14.5" r="13.75" stroke="#A27BB5" stroke-width="1.5"/>
</svg>
