<svg width="29" height="29" viewBox="0 0 29 29" fill="none" xmlns="http://www.w3.org/2000/svg">
<g clip-path="url(#clip0)">
<path d="M15.9469 12.4256H13.0533C12.9034 12.4256 12.782 12.5471 12.782 12.6969C12.782 12.8467 12.9034 12.9681 13.0533 12.9681H15.9469C16.0967 12.9681 16.2181 12.8467 16.2181 12.6969C16.2181 12.5471 16.0967 12.4256 15.9469 12.4256Z" fill="#A27BB5"/>
<path d="M22.8865 14.4034C21.9888 13.7567 20.833 13.5962 19.7946 13.9741C19.6048 14.0432 19.4231 14.1284 19.2509 14.2289L19.2877 13.7975C19.3234 13.3783 19.2489 12.9694 19.0759 12.6068H19.4727C20.7903 12.6068 22.0868 11.5586 22.3629 10.2703L22.9933 7.3285C23.0199 7.20392 22.9563 7.07755 22.8404 7.02479C22.7245 6.97197 22.5874 7.00699 22.5109 7.10893L21.2088 8.84508C20.7824 9.41369 19.8217 9.894 19.111 9.894H17.9521C17.71 9.66975 17.3864 9.53229 17.0312 9.53229H11.9674C11.6121 9.53229 11.2886 9.66975 11.0465 9.894H9.88761C9.1769 9.894 8.2162 9.41365 7.78974 8.84508L6.48765 7.10893C6.41128 7.00699 6.27418 6.97203 6.15821 7.02479C6.04219 7.07758 5.97864 7.20399 6.00531 7.32853L6.6357 10.2703C6.91178 11.5587 8.2083 12.6068 9.52586 12.6068H9.92264C9.74965 12.9694 9.67521 13.3783 9.71087 13.7975L9.74762 14.229C9.57543 14.1284 9.39381 14.0432 9.20392 13.9741C8.16556 13.5962 7.00973 13.7567 6.11205 14.4035C6.02167 14.4686 5.98027 14.5823 6.00766 14.6903C6.27966 15.7628 7.06186 16.6287 8.10022 17.0067C8.46735 17.1403 8.854 17.2071 9.24075 17.2071C9.49362 17.2071 9.74636 17.1778 9.99376 17.1205L10.0663 17.9727C10.1275 18.6928 10.5163 19.3818 11.1135 19.8381L11.5699 22.7002C11.6843 23.4171 12.3679 24.0003 13.0938 24.0003H15.9048C16.6307 24.0003 17.3143 23.4171 17.4287 22.7002L17.8851 19.8381C18.4823 19.3818 18.8711 18.6927 18.9323 17.9727L19.0048 17.1205C19.2522 17.1778 19.505 17.2071 19.7578 17.2071C20.1445 17.2071 20.5313 17.1402 20.8984 17.0066C21.9367 16.6287 22.7189 15.7628 22.9909 14.6903C23.0183 14.5823 22.9769 14.4686 22.8865 14.4034ZM18.3098 10.4365H19.111C19.9983 10.4366 21.1104 9.88049 21.6429 9.17064L22.2039 8.42257L21.8323 10.1566C21.6108 11.1906 20.5302 12.0642 19.4727 12.0642H18.5903C18.5883 12.0642 18.5864 12.0642 18.5845 12.0642H18.3098C18.36 11.9227 18.3876 11.7706 18.3876 11.6121V10.8887C18.3876 10.7302 18.36 10.578 18.3098 10.4365ZM9.52589 12.0643C8.46841 12.0642 7.38781 11.1906 7.16628 10.1566L6.79464 8.42257L7.35571 9.17064C7.88812 9.88052 9.00029 10.4366 9.88761 10.4366H10.6888C10.6386 10.5781 10.611 10.7302 10.611 10.8887V11.6121C10.611 11.7706 10.6386 11.9227 10.6888 12.0643H10.4138C10.412 12.0643 10.4103 12.0642 10.4086 12.0643H9.52589ZM16.8929 22.6148C16.82 23.0717 16.3675 23.4578 15.9048 23.4578H14.7706V22.4878H15.5844C15.7343 22.4878 15.8557 22.3664 15.8557 22.2166V21.8548C15.8557 21.705 15.7343 21.5836 15.5844 21.5836C15.4346 21.5836 15.3132 21.705 15.3132 21.8548V21.9453H13.6855V21.8548C13.6855 21.705 13.564 21.5836 13.4142 21.5836C13.2644 21.5836 13.1429 21.705 13.1429 21.8548V22.2166C13.1429 22.3664 13.2644 22.4878 13.4142 22.4878H14.228V23.4578H13.0939C12.6311 23.4578 12.1786 23.0718 12.1058 22.6148L11.8548 21.041H17.1439L16.8929 22.6148ZM20.7128 16.4967C20.1713 16.6938 19.6011 16.7193 19.0513 16.5738L19.1088 15.8982C19.1215 15.7489 19.0108 15.6176 18.8615 15.6049C18.7129 15.5923 18.5809 15.7029 18.5682 15.8522L18.5132 16.4985H16.5922C16.4424 16.4985 16.3209 16.6199 16.3209 16.7697V17.4931C16.3209 17.6429 16.4424 17.7644 16.5922 17.7644C16.742 17.7644 16.8635 17.6429 16.8635 17.4931V17.041H18.467L18.3917 17.9266C18.3407 18.5255 17.9997 19.0997 17.4796 19.4625C17.4191 19.5046 17.3784 19.5695 17.3669 19.6423L17.2304 20.4984H11.7682L11.6317 19.6423C11.6201 19.5695 11.5794 19.5046 11.519 19.4625C10.9988 19.0997 10.6578 18.5255 10.6069 17.9266L10.5315 17.041H12.1351V17.4931C12.1351 17.6429 12.2565 17.7644 12.4064 17.7644C12.5562 17.7644 12.6776 17.6429 12.6776 17.4931V16.7697C12.6776 16.6199 12.5562 16.4985 12.4064 16.4985H10.4853L10.4303 15.8522C10.4176 15.7029 10.2859 15.5925 10.137 15.6049C9.98771 15.6176 9.87705 15.7489 9.88973 15.8982L9.94724 16.5738C9.39743 16.7193 8.82723 16.6938 8.28579 16.4967C7.47577 16.2019 6.85178 15.5522 6.58616 14.7383C7.31288 14.2857 8.20846 14.1891 9.01838 14.4839C9.34022 14.601 9.63357 14.7731 9.89023 14.9952C9.97364 15.0674 10.0925 15.0819 10.1909 15.0318C10.2893 14.9817 10.3475 14.8771 10.338 14.7671L10.2515 13.7514C10.2161 13.3349 10.3213 12.9334 10.5483 12.6067H11.0465C11.2885 12.8309 11.6121 12.9684 11.9674 12.9684C12.1172 12.9684 12.2386 12.8469 12.2386 12.6971C12.2386 12.5473 12.1172 12.4259 11.9674 12.4259C11.733 12.4259 11.5217 12.3262 11.373 12.1671C11.366 12.1583 11.3585 12.1498 11.3505 12.1419C11.2279 11.9994 11.1536 11.8144 11.1536 11.6121V10.8887C11.1536 10.6864 11.2279 10.5013 11.3505 10.3588C11.3585 10.3509 11.366 10.3425 11.373 10.3336C11.5217 10.1746 11.7331 10.0749 11.9674 10.0749H17.0312C17.2655 10.0749 17.4769 10.1746 17.6255 10.3336C17.6325 10.3425 17.64 10.351 17.6481 10.3588C17.7707 10.5014 17.845 10.6864 17.845 10.8887V11.6121C17.845 11.8144 17.7706 11.9995 17.6481 12.1419C17.64 12.1499 17.6326 12.1583 17.6255 12.1671C17.4769 12.3262 17.2655 12.4259 17.0312 12.4259C16.8813 12.4259 16.7599 12.5473 16.7599 12.6971C16.7599 12.8469 16.8813 12.9684 17.0312 12.9684C17.3864 12.9684 17.71 12.8309 17.9521 12.6067H18.4503C18.6773 12.9334 18.7825 13.3349 18.7471 13.7514L18.6605 14.7671C18.6511 14.8771 18.7094 14.9817 18.8077 15.0318C18.906 15.0819 19.0249 15.0674 19.1084 14.9952C19.3651 14.773 19.6584 14.601 19.9802 14.4839C20.7903 14.189 21.6858 14.2857 22.4124 14.7384C22.1468 15.5522 21.5228 16.2019 20.7128 16.4967Z" fill="#A27BB5" stroke="#A27BB5" stroke-width="0.4" stroke-linejoin="round"/>
</g>
<circle cx="14.5" cy="14.5" r="13.75" stroke="#A27BB5" stroke-width="1.5"/>
<defs>
<clipPath id="clip0">
<rect width="17" height="17" fill="white" transform="translate(6 7)"/>
</clipPath>
</defs>
</svg>
